<svg width="160" height="56" viewBox="0 0 160 56" fill="none" xmlns="http://www.w3.org/2000/svg">
<path fill-rule="evenodd" clip-rule="evenodd" d="M63.3587 36.2188V39.2266H61.9912V41.441H63.3587V45.4821C63.3587 48.8221 63.9318 48.8958 69.0135 48.8958V46.1462H68.4037C67.332 46.1462 67.2026 45.8327 67.2026 44.9469V41.441H69.0506V39.2266H67.2026V36.2188H63.3587ZM75.8882 41.5332C76.8675 41.5332 77.5144 42.5482 77.5144 43.9689C77.5144 45.7957 76.8861 46.5893 75.8511 46.5893C74.8717 46.5893 74.1881 45.7957 74.1881 43.9689C74.1881 42.8803 74.5759 41.5332 75.8882 41.5332ZM70.3443 44.1718C70.3443 47.475 72.7465 49.1726 75.8511 49.1726C78.9557 49.1726 81.3579 47.5118 81.3579 43.9689C81.3579 40.9612 79.2512 38.9498 75.8326 38.9498C72.5618 38.9498 70.3443 40.8136 70.3443 44.1718ZM94.1642 41.6994C95.3839 41.6994 95.7906 42.714 95.7906 43.7845C95.7906 44.8177 95.3471 45.7772 94.1642 45.7772C93.111 45.7772 92.6492 44.8547 92.6492 43.8952C92.6492 42.6403 93.0002 41.6994 94.1642 41.6994ZM89.3043 49.3941C89.489 50.8147 90.9303 52.1803 94.3492 52.1803C99.1169 52.1803 99.4494 49.9108 99.4494 47.0136V39.2266H96.0678V40.4998C95.7342 40.0293 95.2944 39.6439 94.7839 39.3746C94.2735 39.1054 93.7068 38.9598 93.1296 38.9498C89.9509 38.9498 88.8053 41.4777 88.8053 43.8582C88.8053 46.3309 90.339 48.4345 93.0188 48.4345C94.4045 48.4345 95.2363 47.9363 95.7906 47.3826V48.1762C95.7906 49.5602 95.3472 50.0585 94.2384 50.0585C93.4992 50.0585 93.2219 49.7261 93.1663 49.3941H89.3043ZM106.657 41.5332C107.636 41.5332 108.283 42.5482 108.283 43.9689C108.283 45.7957 107.655 46.5893 106.62 46.5893C105.64 46.5893 104.957 45.7957 104.957 43.9689C104.957 42.8803 105.344 41.5332 106.657 41.5332ZM101.113 44.1718C101.113 47.475 103.515 49.1726 106.62 49.1726C109.724 49.1726 112.126 47.5118 112.126 43.9689C112.126 40.9612 110.02 38.9498 106.601 38.9498C103.33 38.9498 101.113 40.8136 101.113 44.1718Z" fill="white"/>
<path d="M49.304 55.0267H44.45C44.1257 55.0209 43.8104 54.9192 43.5439 54.7344H48.3979C48.6644 54.9192 48.9797 55.0209 49.304 55.0267Z" fill="#858585"/>
<path d="M48.3983 54.7342H43.5443L38.4395 51.3262H43.2933L48.3983 54.7342Z" fill="#808080"/>
<path d="M43.293 51.3258H38.439C37.6986 51.0869 37.2169 50.9897 36.8145 50.9897H41.6684C42.0708 50.9897 42.5526 51.0869 43.293 51.3258Z" fill="#858585"/>
<path d="M39.0665 2.45269C39.1723 2.38181 39.278 2.31049 39.3856 2.24244C39.4492 2.20222 39.5143 2.16456 39.5785 2.12535C39.6761 2.0657 39.7733 2.00527 39.8722 1.94794C39.9425 1.9072 40.0143 1.8691 40.0853 1.82954C40.1803 1.77656 40.2749 1.72269 40.3712 1.67185C40.4162 1.64806 40.462 1.62584 40.5073 1.60253C40.6221 1.54342 40.7372 1.48502 40.8535 1.42898C40.9136 1.40005 40.9743 1.37248 41.0347 1.34437C41.1382 1.29626 41.2419 1.24887 41.3465 1.2032C41.4115 1.17482 41.4769 1.14723 41.5423 1.11979C41.6448 1.07681 41.7478 1.03501 41.8513 0.994388C41.9174 0.968447 41.9835 0.942649 42.05 0.91768C42.157 0.877466 42.2647 0.839073 42.3728 0.801401C42.4356 0.779473 42.4983 0.75698 42.5614 0.735918C42.6854 0.694582 42.8104 0.655782 42.9356 0.617795C42.9831 0.603371 43.0302 0.587754 43.0779 0.573825C43.2511 0.523251 43.4253 0.475851 43.6005 0.431626C43.6357 0.422762 43.6714 0.415347 43.7067 0.406747C43.8502 0.371782 43.9942 0.338162 44.1391 0.307617C44.174 0.300255 44.2091 0.293493 44.2441 0.286378C44.3913 0.25647 44.5391 0.22883 44.6875 0.203458C44.7155 0.198703 44.7432 0.193417 44.7712 0.188823C44.9382 0.161379 45.106 0.137029 45.2745 0.115774C45.3133 0.110807 45.3523 0.106325 45.3912 0.101677C45.5476 0.0829825 45.7045 0.0667309 45.862 0.0529222C45.8802 0.0513583 45.8983 0.0492803 45.9166 0.0477874C46.0876 0.0337789 46.2592 0.023641 46.4313 0.0158099C46.4722 0.0139535 46.5131 0.0123037 46.5541 0.0108604C46.7285 0.00442672 46.9032 0 47.0785 0H42.2245C42.0492 0 41.8745 0.00442816 41.7001 0.0108604C41.6591 0.0123722 41.6182 0.0139448 41.5773 0.0158099C41.4052 0.0236497 41.2336 0.0337658 41.0626 0.0477874C41.0443 0.049289 41.0262 0.0513583 41.008 0.0529222C40.8505 0.0664442 40.6936 0.082981 40.5372 0.101665C40.4983 0.106314 40.4593 0.110804 40.4205 0.115771C40.2521 0.137299 40.0843 0.161648 39.9172 0.18882C39.8893 0.193414 39.8615 0.1987 39.8335 0.203455C39.6851 0.228748 39.5373 0.256388 39.3901 0.286375C39.3551 0.29349 39.32 0.300243 39.2851 0.307614C39.263 0.312281 39.2407 0.316284 39.2186 0.321056C39.096 0.347518 38.9743 0.377118 38.8527 0.406744C38.8174 0.415344 38.7817 0.422759 38.7465 0.431623C38.5712 0.47571 38.3971 0.523109 38.2239 0.573822C38.1762 0.587751 38.1291 0.603363 38.0816 0.617793C37.9564 0.65578 37.8315 0.694579 37.7075 0.735915C37.6442 0.756986 37.5816 0.77948 37.5187 0.801415C37.4107 0.839085 37.3031 0.87746 37.196 0.917657C37.1295 0.942652 37.0634 0.96845 36.9972 0.994417C36.8938 1.03503 36.7908 1.07681 36.6884 1.11976C36.6229 1.14723 36.5575 1.17482 36.4924 1.20325C36.3879 1.24888 36.2842 1.29623 36.1809 1.34431C36.1204 1.37244 36.0596 1.40003 35.9995 1.42899C35.8831 1.48511 35.7678 1.54356 35.6529 1.60276C35.6078 1.62599 35.5621 1.6481 35.5173 1.67181C35.5088 1.67628 35.5001 1.68035 35.4917 1.68484C35.4038 1.73148 35.3177 1.78138 35.2308 1.8298C35.16 1.86927 35.0884 1.90731 35.0182 1.94795C34.9192 2.00527 34.8221 2.06571 34.7245 2.12536C34.6603 2.16457 34.5952 2.20223 34.5316 2.24244C34.424 2.3105 34.3183 2.38182 34.2125 2.4527C34.1606 2.48743 34.1077 2.52055 34.0562 2.55596C33.8997 2.66361 33.7452 2.7743 33.5928 2.88802H38.4468C38.5992 2.77425 38.7536 2.66356 38.9102 2.55596C38.9617 2.52054 39.0146 2.48743 39.0665 2.45269Z" fill="#8F8F8F"/>
<path d="M33.7846 52.4528H28.9306C25.8171 52.4479 22.7494 51.7031 19.9812 50.2799C17.213 48.8567 14.8238 46.7959 13.0112 44.2681C11.2075 41.7813 9.99073 38.9191 9.45215 35.896H14.3061C14.8447 38.9191 16.0615 41.7813 17.8652 44.2681C19.6778 46.7959 22.067 48.8567 24.8352 50.2799C27.6034 51.7031 30.6711 52.4479 33.7846 52.4528Z" fill="#858585"/>
<path d="M14.3059 35.8957H9.45192C8.92117 35.7576 8.3764 35.6802 7.82812 35.665H12.6821C13.2304 35.6802 13.7752 35.7576 14.3059 35.8957Z" fill="#858585"/>
<path d="M47.0785 0C48.276 0.00065338 49.4688 0.150823 50.629 0.447016C58.4697 2.4423 63.2415 10.5498 61.2871 18.5557C60.7715 20.7115 59.7787 22.7246 58.3816 24.4469C56.9846 26.1693 55.2188 27.5572 53.2141 28.5087C54.1203 33.4318 53.2048 38.5161 50.638 42.8158C49.3231 45.0039 48.7793 44.5543 48.8048 47.2377L50.4146 53.406C50.67 54.3868 50.07 55.0264 49.3037 55.0264C48.9793 55.0206 48.664 54.9188 48.3976 54.734L43.2926 51.326C42.5523 51.0871 42.0705 50.9899 41.6681 50.9899C40.9249 50.9899 40.4525 51.3214 39.1233 51.7027C37.3874 52.2003 35.5901 52.4527 33.7841 52.4523C30.6705 52.4474 27.6028 51.7026 24.8346 50.2794C22.0664 48.8562 19.6773 46.7955 17.8646 44.2676C16.0609 41.7808 14.8442 38.9186 14.3056 35.8955C13.7748 35.7574 13.2301 35.68 12.6818 35.6648L6.40107 36.9238C6.2878 36.9469 6.17251 36.9588 6.05689 36.9593C4.92762 36.9593 4.47766 35.7255 5.21131 34.7304L8.96697 29.6399C9.79163 27.4895 9.32313 27.4426 8.87378 25.2675C7.19509 17.1104 10.4797 8.37863 17.76 3.60873C20.8089 1.60211 24.3526 0.473244 28.002 0.346104C31.6513 0.218964 35.2652 1.09846 38.4468 2.88802C40.9362 1.01981 43.9644 0.00661182 47.0785 0Z" fill="#E8E8E8"/>
<path d="M18.4538 3.17532C18.6409 3.06321 18.8289 2.95436 19.0181 2.84877C19.0498 2.83111 19.0818 2.81414 19.1136 2.79666C19.2582 2.71715 19.4038 2.64081 19.5497 2.56523C19.647 2.51478 19.7446 2.46514 19.8424 2.41629C19.9596 2.35794 20.0772 2.30096 20.1952 2.24537C20.2934 2.19884 20.3918 2.15258 20.4905 2.10779C20.6094 2.05381 20.7288 2.00179 20.8484 1.95033C20.9468 1.90798 21.0452 1.86552 21.144 1.82486C21.2654 1.77492 21.3873 1.72729 21.5092 1.6799C21.6072 1.64185 21.705 1.60331 21.8032 1.56691C21.9276 1.52083 22.0525 1.47743 22.1775 1.43399C22.2741 1.40037 22.3706 1.3659 22.4675 1.33385C22.5964 1.29124 22.7259 1.2517 22.8552 1.21186C22.9489 1.18303 23.0423 1.15295 23.1361 1.12557C23.2726 1.08576 23.4095 1.04943 23.5465 1.01266C23.6339 0.989177 23.7211 0.964059 23.8088 0.941813C23.9648 0.902208 24.1213 0.86653 24.2779 0.83085C24.3467 0.815161 24.4153 0.797556 24.4842 0.782619C24.6915 0.737695 24.8992 0.696906 25.1072 0.658785C25.1659 0.648029 25.2247 0.638317 25.2835 0.6281C25.4404 0.600826 25.5974 0.575448 25.7545 0.551966C25.8174 0.542599 25.8803 0.533045 25.9432 0.524285C26.1384 0.497108 26.3337 0.4723 26.5292 0.451014C26.5443 0.44937 26.5594 0.447204 26.5745 0.445586C26.7845 0.423217 26.9946 0.40517 27.2047 0.389546C27.2652 0.385047 27.3257 0.381504 27.3862 0.377562C27.5436 0.367319 27.701 0.358952 27.8584 0.352462C27.9202 0.349925 27.982 0.347097 28.0437 0.345134C28.2542 0.338444 28.4646 0.333984 28.6748 0.333984H23.8209C23.6106 0.333976 23.4002 0.33844 23.1898 0.345134C23.128 0.347097 23.0662 0.349925 23.0045 0.352462C22.8471 0.35894 22.6896 0.367307 22.5322 0.377562C22.4717 0.381504 22.4112 0.385057 22.3507 0.389546C22.1405 0.405172 21.9303 0.423221 21.7203 0.445608C21.7057 0.447155 21.6912 0.449248 21.6766 0.450831C21.4806 0.472158 21.2848 0.497037 21.0892 0.524285C21.0263 0.533027 20.9636 0.542554 20.9009 0.551914C20.7434 0.575389 20.586 0.600814 20.4289 0.628188C20.3704 0.638352 20.312 0.648012 20.2536 0.658707C20.0509 0.695854 19.8483 0.735237 19.6462 0.778854C19.6408 0.78003 19.6354 0.781479 19.63 0.782654C19.562 0.797379 19.4944 0.814746 19.4266 0.830204C19.2691 0.866087 19.1115 0.902014 18.9545 0.941866C18.8676 0.963935 18.781 0.988878 18.6942 1.01217C18.5566 1.04909 18.419 1.08561 18.2819 1.12562C18.1882 1.15295 18.0951 1.18297 18.0016 1.21173C17.8721 1.2516 17.7426 1.29117 17.6136 1.33382C17.5166 1.36588 17.4201 1.40039 17.3233 1.43403C17.1985 1.47746 17.0736 1.52083 16.9493 1.5669C16.851 1.6033 16.7532 1.64184 16.6553 1.67989C16.5333 1.72728 16.4114 1.7749 16.29 1.82485C16.1912 1.86551 16.0928 1.90796 15.9944 1.95032C15.8748 2.00178 15.7554 2.05379 15.6365 2.10778C15.5378 2.15257 15.4395 2.19882 15.3412 2.24536C15.2233 2.30121 15.1057 2.35818 14.9884 2.41628C14.8906 2.46498 14.793 2.51463 14.6957 2.56522C14.6368 2.59574 14.5773 2.62416 14.5186 2.65531C14.432 2.70132 14.3459 2.74924 14.2596 2.79665C14.2278 2.81413 14.1958 2.83109 14.1641 2.84876C13.9749 2.95408 13.7868 3.06293 13.5998 3.17531C13.5589 3.19981 13.5182 3.22475 13.4774 3.24958C13.2861 3.36611 13.0954 3.48494 12.9065 3.60867C5.62619 8.37857 2.34158 17.1104 4.02026 25.2674C4.46962 27.4426 4.93811 27.4895 4.11346 29.6398L0.357794 34.7303C-0.375859 35.7254 0.0740976 36.9592 1.20338 36.9592H6.05735C4.92808 36.9592 4.47812 35.7254 5.21177 34.7303L8.96743 29.6398C9.7921 27.4895 9.32359 27.4426 8.87424 25.2674C7.19556 17.1104 10.4802 8.37857 17.7604 3.60867C17.9494 3.48494 18.14 3.36611 18.3314 3.24958C18.3722 3.22476 18.4129 3.19981 18.4538 3.17532Z" fill="#858585"/>
<path fill-rule="evenodd" clip-rule="evenodd" d="M45.713 9.77139C48.322 13.7704 49.4568 18.5511 48.9226 23.2939C48.3884 28.0368 46.2186 32.4464 42.7851 35.7667C39.3517 39.0871 34.8685 41.1115 30.104 41.4927C25.3396 41.874 20.5907 40.5885 16.6715 37.8565C14.5261 36.361 15.0176 35.8233 12.285 35.6877L5.90855 36.9842C4.51064 37.2682 3.87287 35.9022 4.68279 34.8124L8.46558 29.7217C9.2888 27.577 8.81151 27.5349 8.34022 25.3744C7.31574 20.6752 7.97313 15.7662 10.1981 11.5009C12.423 7.2357 16.0747 3.88408 20.5182 2.02896C24.9616 0.173837 29.9157 -0.067423 34.5188 1.34713C39.1219 2.76169 43.0829 5.74258 45.713 9.77139V9.77139Z" fill="#E42125"/>
<path fill-rule="evenodd" clip-rule="evenodd" d="M48.5779 0.446669C51.9475 1.28597 54.9199 3.2696 56.9853 6.05749C59.0507 8.84539 60.0806 12.2639 59.8984 15.727C59.7162 19.19 58.3332 22.482 55.9866 25.0384C53.64 27.5948 50.4759 29.2565 47.0367 29.7386C45.1543 30.0025 45.1495 29.4734 43.628 30.7512L40.877 34.591C40.2738 35.4326 39.2579 35.0208 39.1487 34.0406L38.6398 29.4629C38.0153 27.9152 37.7405 28.1283 36.4194 27.2113C33.5462 25.2166 31.464 22.2795 30.535 18.9106C29.606 15.5417 29.8888 11.9543 31.3344 8.77209C32.78 5.58991 35.2968 3.01433 38.4472 1.49326C41.5977 -0.0278112 45.1823 -0.398142 48.5779 0.446669Z" fill="#2E90D1"/>
<path fill-rule="evenodd" clip-rule="evenodd" d="M19.5542 17.1504C23.2009 14.1967 27.763 12.6017 32.4584 12.6388C37.1538 12.6759 41.69 14.3428 45.2894 17.3538C48.8888 20.3648 51.3272 24.5322 52.1866 29.1417C53.0459 33.7512 52.2727 38.5157 49.9995 42.6183C48.7552 44.8641 48.1789 44.4393 48.3253 47.1194L50.2446 53.2082C50.6651 54.5431 49.3936 55.3043 48.2446 54.6259L42.8773 51.4547C40.6948 50.8704 40.7023 51.3403 38.6364 52.0204C34.1429 53.4997 29.2723 53.3594 24.8716 51.624C20.4709 49.8887 16.8186 46.668 14.5498 42.5221C12.281 38.3762 11.5393 33.5673 12.4536 28.9319C13.3679 24.2964 15.8804 20.1276 19.5542 17.1504Z" fill="#78258D"/>
<path d="M47.1194 24.9165L45.6692 25.7853H35.6631L37.5483 24.9165H47.1194Z" fill="#808080"/>
<path d="M37.5862 25.1668L35.4898 26.2186C35.4671 26.2152 35.4439 26.2183 35.4229 26.2276L37.5192 25.1758C37.5402 25.1666 37.5634 25.1635 37.5862 25.1668Z" fill="#858585"/>
<path d="M30.1969 37.4613L28.1006 38.5131C29.5488 37.2671 30.8713 35.8824 32.0491 34.3789L34.1454 33.3271C32.9676 34.8306 31.6451 36.2153 30.1969 37.4613Z" fill="#858585"/>
<path d="M42.0462 44.98L39.9499 46.0317C39.6555 46.1919 39.3271 46.2795 38.992 46.2873C38.1072 46.2873 37.1909 45.5988 35.3911 44.2388C33.1922 42.5819 28.2106 38.7564 28.1006 38.5127L30.1969 37.4609C30.3069 37.7046 35.2885 41.5301 37.4874 43.187C39.2873 44.5471 40.2036 45.2355 41.0883 45.2355C41.4234 45.2278 41.7519 45.1401 42.0462 44.98Z" fill="#858585"/>
<path d="M34.1457 33.3271C34.9497 33.7847 42.3118 39.3944 44.6648 41.1217C45.5593 41.7769 45.6122 42.2317 44.7285 42.9654C42.9022 44.4854 42.0127 45.2359 41.0886 45.2359C40.2039 45.2359 39.2876 44.5474 37.4878 43.1874C35.2889 41.5305 30.3073 37.705 30.1973 37.4613C31.6455 36.2153 32.9679 34.8306 34.1457 33.3271Z" fill="white"/>
<path d="M16.193 38.8365L14.0967 39.8883C14.4308 39.6473 16.2321 38.3451 17.281 37.7089C21.6263 35.0773 25.5447 32.0017 28.1253 27.5264C28.2471 27.3152 28.3661 27.0986 28.4851 26.8793C28.7428 26.3498 28.9667 25.8046 29.1554 25.2468C29.6525 23.8674 30.0344 22.4492 30.2971 21.0069L32.3274 19.4141C32.2775 19.8283 32.3963 19.3647 32.0373 21.5862C31.9212 22.305 31.509 23.5128 31.2518 24.195C31.0239 24.8259 30.8077 26.2549 30.2971 26.944C27.2214 31.0955 23.7227 34.0255 19.3773 36.6571C18.3285 37.2933 16.5271 38.5956 16.193 38.8365Z" fill="#858585"/>
<path d="M19.1857 43.7476L17.0894 44.7993L14.0791 39.9882L16.1755 38.9365L19.1857 43.7476Z" fill="#808080"/>
<path d="M46.8295 19.414L47.1195 24.9166H37.5484C37.4859 24.9105 36.9891 26.3824 36.6219 27.3652C35.7982 29.5636 35.0673 30.671 33.6858 32.5174C31.6957 35.1734 29.1721 37.4882 26.2342 39.5349C24.6008 40.6747 20.9766 42.7405 19.6676 43.4742C19.3679 43.6474 19.1949 43.7426 19.1858 43.7476L16.1756 38.9366C16.165 38.9209 16.1609 38.9016 16.1642 38.8829C16.1676 38.8642 16.178 38.8475 16.1935 38.8364C16.5276 38.5955 18.3289 37.2932 19.3778 36.657C23.7231 34.0254 27.6415 30.9498 30.2221 26.4745C30.3439 26.2634 30.4591 26.0446 30.5819 25.8275C31.0615 24.9793 31.5299 23.2173 31.7922 21.9148C32.2364 19.7088 32.278 19.8282 32.3278 19.414C32.3336 19.3768 46.8295 19.414 46.8295 19.414Z" fill="white"/>
<path d="M16.1753 38.9371L14.0789 39.9889C14.0683 39.9731 14.0642 39.9539 14.0675 39.9352C14.0709 39.9165 14.0814 39.8998 14.0968 39.8887L16.1931 38.8369C16.1777 38.848 16.1672 38.8647 16.1639 38.8834C16.1606 38.9021 16.1646 38.9213 16.1753 38.9371Z" fill="#858585"/>
<path d="M42.8516 9.29004L40.7552 10.3418H39.1162L41.2126 9.29004H42.8516Z" fill="#808080"/>
<path d="M38.3313 16.0626L36.235 17.1143C35.4205 17.5199 34.5222 17.729 33.6121 17.7248C33.5985 17.7248 33.5845 17.7248 33.5709 17.7247C30.2789 17.703 27.7429 15.1554 27.7324 11.8605C27.7314 10.7845 28.0304 9.72947 28.5958 8.81352C29.1613 7.89756 29.9709 7.15686 30.934 6.67433L33.0304 5.62256C32.0673 6.10509 31.2576 6.84579 30.6922 7.76175C30.1267 8.6777 29.8278 9.73274 29.8288 10.8087C29.8393 14.1036 32.3753 16.6513 35.6672 16.6729C35.6808 16.673 35.6948 16.6731 35.7084 16.6731C36.6185 16.6772 37.5169 16.4681 38.3313 16.0626Z" fill="#858585"/>
<path d="M42.8102 5.01758L42.8518 9.28983H41.2127C41.3584 9.79892 41.435 10.3252 41.4405 10.8547C41.4752 14.1251 38.9595 16.673 35.7088 16.673C35.6952 16.673 35.6812 16.6729 35.6676 16.6728C32.3756 16.6512 29.8396 14.1035 29.8291 10.8086C29.8268 9.28957 30.4232 7.83059 31.4894 6.74699C32.5556 5.66339 34.0059 5.04217 35.527 5.01758C35.7019 5.01758 35.877 5.02299 36.0493 5.03652L42.8102 5.01758Z" fill="white"/>
<path d="M67.6043 18.6807V28.828H73.569V31.9163H63.2598V18.6807H67.6043Z" fill="white"/>
<path d="M78.9628 25.2439H75.2809C75.2809 24.19 75.6981 23.3872 76.5326 22.8356C77.3671 22.2842 78.7048 22.0085 80.5459 22.0085C81.1957 22.0018 81.845 22.0448 82.4881 22.1372C82.955 22.1985 83.4089 22.3351 83.832 22.5415C84.1408 22.6966 84.4259 22.8946 84.6789 23.1297C84.9057 23.3594 85.0676 23.6448 85.1483 23.957C85.239 24.2636 85.3036 24.5772 85.3416 24.8946C85.376 25.2612 85.3914 25.6294 85.3877 25.9976V30.5013C85.3778 30.7431 85.4058 30.985 85.4706 31.2183C85.5648 31.4262 85.7144 31.6042 85.9031 31.7329V31.9168H81.945L81.7609 30.8874C80.8282 31.7576 79.6193 32.1926 78.1343 32.1925C77.1522 32.1925 76.333 31.9444 75.6765 31.4481C75.0199 30.9517 74.6916 30.2317 74.6916 29.288C74.6674 28.6809 74.8455 28.0829 75.198 27.5877C75.5155 27.1549 75.9591 26.8307 76.4682 26.6592C77.0098 26.4794 77.5635 26.3381 78.1252 26.2365C78.6729 26.1324 79.226 26.0588 79.782 26.016C80.2188 25.996 80.6487 25.8995 81.0521 25.731C81.3897 25.5779 81.5585 25.3666 81.5585 25.0968C81.5585 24.5699 81.1412 24.3064 80.3066 24.3063C79.4843 24.3063 79.0363 24.6189 78.9628 25.2439ZM81.5585 27.652C81.157 27.8229 80.7369 27.9463 80.3066 28.0196C79.874 28.0896 79.4548 28.2261 79.0639 28.4241C78.9276 28.5038 78.8164 28.6201 78.7432 28.7599C78.67 28.8997 78.6376 29.0573 78.6498 29.2146C78.6486 29.333 78.6786 29.4496 78.7367 29.5529C78.7949 29.6561 78.8791 29.7423 78.9811 29.8028C79.2474 29.9618 79.5549 30.0386 79.8648 30.0233C80.5028 30.0233 80.9446 29.8272 81.1903 29.4351C81.4357 29.043 81.5584 28.4486 81.5585 27.652V27.652Z" fill="white"/>
<path d="M90.91 22.2845V23.7919C91.7937 22.6033 92.8798 22.0089 94.1684 22.0088C96.6599 22.0088 97.9057 23.3875 97.9058 26.1449V31.9171H94.0764V26.825C94.0764 25.6242 93.6285 25.0237 92.7326 25.0235C92.1679 25.0235 91.7782 25.189 91.5635 25.5199C91.3487 25.8508 91.2413 26.3471 91.2413 27.0089V31.9171H87.4121V22.2845H90.91Z" fill="white"/>
<path d="M100.06 32.4125H103.907C103.981 32.8537 104.337 33.0743 104.975 33.0742C105.527 33.0742 105.923 32.9333 106.162 32.6514C106.402 32.3694 106.522 31.8854 106.521 31.1993V30.4088C105.822 31.1073 104.902 31.4565 103.76 31.4566C102.471 31.4566 101.45 31.0185 100.695 30.1422C99.9401 29.2661 99.5627 28.1846 99.5626 26.8977C99.5591 26.2981 99.6397 25.701 99.802 25.1237C99.9588 24.5717 100.201 24.0475 100.52 23.5703C100.857 23.0767 101.321 22.683 101.864 22.4306C102.491 22.1377 103.178 21.9931 103.871 22.0079C104.443 22.0067 105.006 22.1489 105.509 22.4214C106.02 22.6937 106.461 23.0807 106.798 23.552V22.2836H110.167V30.0411C110.167 30.6049 110.151 31.0706 110.121 31.4382C110.083 31.8447 110.012 32.2474 109.909 32.6423C109.821 33.0306 109.648 33.3947 109.403 33.7085C109.147 34.0096 108.849 34.2726 108.519 34.4897C108.09 34.7605 107.611 34.9419 107.111 35.0229C106.442 35.1409 105.764 35.1963 105.085 35.1883C103.502 35.1883 102.293 34.9218 101.459 34.3886C100.624 33.8556 100.158 33.1969 100.06 32.4125ZM104.901 24.7469C103.895 24.7469 103.392 25.4761 103.392 26.9345C103.376 27.4084 103.512 27.875 103.778 28.2671C103.905 28.4448 104.074 28.5877 104.27 28.6826C104.466 28.7774 104.684 28.821 104.901 28.8094C105.454 28.8094 105.862 28.6195 106.126 28.2396C106.401 27.82 106.539 27.3254 106.521 26.8241C106.542 26.3006 106.407 25.7827 106.135 25.3351C105.877 24.943 105.466 24.7469 104.901 24.7469Z" fill="white"/>
<path d="M112.19 22.2842H116.02V27.4865C116.02 28.1238 116.13 28.5742 116.351 28.8377C116.572 29.1013 116.922 29.233 117.4 29.2329C117.928 29.2329 118.302 29.0429 118.524 28.663C118.744 28.2833 118.855 27.7012 118.855 26.9167V22.2842H122.684V31.9167H119.131V30.5012C118.664 31.151 118.173 31.5952 117.658 31.834C117.143 32.0729 116.474 32.1924 115.652 32.1925C114.571 32.1925 113.724 31.8555 113.111 31.1815C112.497 30.5075 112.19 29.4965 112.19 28.1483V22.2842Z" fill="white"/>
<path d="M128.52 25.2439H124.838C124.838 24.19 125.256 23.3872 126.09 22.8356C126.925 22.2842 128.262 22.0085 130.104 22.0085C130.753 22.0018 131.403 22.0448 132.046 22.1372C132.513 22.1985 132.966 22.3351 133.39 22.5415C133.698 22.6966 133.983 22.8946 134.236 23.1297C134.463 23.3593 134.625 23.6447 134.706 23.957C134.797 24.2636 134.861 24.5772 134.899 24.8946C134.934 25.2612 134.949 25.6294 134.945 25.9976V30.5013C134.935 30.7431 134.963 30.985 135.028 31.2183C135.122 31.4261 135.272 31.6041 135.461 31.7329V31.9168H131.503L131.319 30.8874C130.386 31.7576 129.177 32.1926 127.692 32.1925C126.71 32.1925 125.891 31.9444 125.234 31.4481C124.578 30.9517 124.249 30.2317 124.249 29.288C124.225 28.6809 124.403 28.0829 124.756 27.5877C125.073 27.1549 125.517 26.8307 126.026 26.6592C126.567 26.4794 127.121 26.3381 127.683 26.2365C128.23 26.1324 128.784 26.0588 129.339 26.016C129.776 25.996 130.206 25.8995 130.61 25.731C130.947 25.5779 131.116 25.3666 131.116 25.0968C131.116 24.5699 130.699 24.3064 129.864 24.3063C129.042 24.3063 128.594 24.6189 128.52 25.2439ZM131.116 27.652C130.715 27.823 130.294 27.9464 129.864 28.0196C129.432 28.0897 129.012 28.2261 128.622 28.4241C128.485 28.5038 128.374 28.6202 128.301 28.76C128.228 28.8997 128.195 29.0573 128.207 29.2146C128.206 29.333 128.236 29.4497 128.294 29.5529C128.352 29.6562 128.437 29.7423 128.539 29.8028C128.805 29.9619 129.113 30.0386 129.422 30.0233C130.06 30.0233 130.502 29.8272 130.748 29.4351C130.993 29.043 131.116 28.4486 131.116 27.652V27.652Z" fill="white"/>
<path d="M137.099 32.4125H140.946C141.02 32.8537 141.376 33.0742 142.014 33.0742C142.567 33.0742 142.962 32.9333 143.202 32.6514C143.441 32.3694 143.56 31.8854 143.561 31.1993V30.4088C142.861 31.1073 141.941 31.4565 140.799 31.4566C139.511 31.4566 138.489 31.0185 137.734 30.1422C136.979 29.2661 136.602 28.1846 136.602 26.8977C136.598 26.2981 136.679 25.701 136.841 25.1237C136.998 24.5717 137.24 24.0476 137.559 23.5703C137.896 23.0768 138.361 22.6832 138.903 22.4306C139.53 22.1378 140.217 21.9931 140.91 22.0079C141.482 22.0067 142.045 22.1489 142.548 22.4214C143.06 22.6936 143.501 23.0807 143.837 23.552V22.2836H147.206V30.0411C147.206 30.6049 147.19 31.0706 147.16 31.4382C147.122 31.8447 147.051 32.2474 146.948 32.6423C146.86 33.0306 146.687 33.3947 146.442 33.7085C146.186 34.0096 145.888 34.2727 145.558 34.4897C145.129 34.7605 144.65 34.9419 144.15 35.0229C143.481 35.1409 142.803 35.1963 142.125 35.1883C140.542 35.1883 139.333 34.9218 138.498 34.3886C137.663 33.8556 137.197 33.1969 137.099 32.4125ZM141.941 24.7469C140.934 24.7469 140.431 25.4761 140.431 26.9345C140.415 27.4084 140.551 27.875 140.818 28.2671C140.944 28.4448 141.113 28.5878 141.309 28.6826C141.506 28.7774 141.723 28.821 141.941 28.8094C142.493 28.8094 142.901 28.6195 143.165 28.2396C143.44 27.82 143.579 27.3254 143.561 26.8241C143.581 26.3005 143.447 25.7826 143.174 25.3351C142.916 24.943 142.505 24.7469 141.941 24.7469Z" fill="white"/>
<path d="M160 27.9648H152.692C152.683 28.2175 152.728 28.4691 152.823 28.7034C152.919 28.9377 153.062 29.1495 153.244 29.3251C153.421 29.499 153.631 29.6357 153.862 29.7273C154.093 29.8188 154.339 29.8633 154.588 29.8581C155.275 29.8581 155.754 29.5763 156.024 29.0126H159.687C159.556 29.5323 159.314 30.0176 158.977 30.4349C158.64 30.8522 158.217 31.1917 157.736 31.43C156.684 31.9516 155.523 32.2133 154.349 32.1928C152.74 32.1928 151.424 31.7516 150.4 30.8693C149.375 29.9869 148.862 28.7614 148.862 27.1927C148.862 25.6364 149.381 24.3833 150.418 23.4334C151.455 22.4838 152.759 22.0089 154.33 22.0088C156.097 22.0088 157.484 22.545 158.491 23.6173C159.497 24.6898 160 26.1389 160 27.9648ZM152.692 26.0163H156.171C156.171 25.7975 156.126 25.581 156.039 25.3803C155.952 25.1795 155.824 24.9987 155.665 24.8489C155.512 24.6882 155.328 24.5604 155.123 24.4735C154.919 24.3865 154.699 24.3422 154.477 24.3433C153.913 24.3433 153.474 24.4934 153.161 24.7937C153.002 24.9535 152.878 25.1448 152.797 25.3554C152.716 25.5659 152.68 25.7911 152.692 26.0163V26.0163Z" fill="white"/>
</svg>
