<svg width="96" height="32" viewBox="0 0 96 32" fill="none" xmlns="http://www.w3.org/2000/svg">
<path fill-rule="evenodd" clip-rule="evenodd" d="M38.0148 21.0627V22.8119H37.1943V24.0997H38.0148V26.4497C38.0148 28.3921 38.3587 28.4349 41.4077 28.4349V26.8359H41.0418C40.3988 26.8359 40.3212 26.6536 40.3212 26.1385V24.0997H41.4299V22.8119H40.3212V21.0627H38.0148ZM45.5325 24.1533C46.1201 24.1533 46.5082 24.7436 46.5082 25.5697C46.5082 26.6321 46.1313 27.0936 45.5103 27.0936C44.9226 27.0936 44.5125 26.6321 44.5125 25.5697C44.5125 24.9367 44.7452 24.1533 45.5325 24.1533ZM42.2062 25.6877C42.2062 27.6087 43.6475 28.5959 45.5103 28.5959C47.3731 28.5959 48.8144 27.6301 48.8144 25.5697C48.8144 23.8207 47.5503 22.651 45.4992 22.651C43.5367 22.651 42.2062 23.7348 42.2062 25.6877V25.6877ZM56.4982 24.2499C57.23 24.2499 57.4739 24.84 57.4739 25.4625C57.4739 26.0634 57.2079 26.6213 56.4982 26.6213C55.8662 26.6213 55.5891 26.0849 55.5891 25.5269C55.5891 24.7971 55.7998 24.2499 56.4982 24.2499ZM53.5822 28.7247C53.693 29.5509 54.5578 30.345 56.6091 30.345C59.4697 30.345 59.6693 29.0252 59.6693 27.3403V22.8119H57.6403V23.5523C57.4401 23.2787 57.1762 23.0546 56.87 22.898C56.5637 22.7414 56.2237 22.6568 55.8773 22.651C53.9702 22.651 53.2828 24.121 53.2828 25.5054C53.2828 26.9434 54.203 28.1667 55.8109 28.1667C56.6423 28.1667 57.1414 27.877 57.4739 27.555V28.0164C57.4739 28.8213 57.2079 29.1111 56.5426 29.1111C56.0991 29.1111 55.9327 28.9178 55.8994 28.7247H53.5822ZM63.9936 24.1533C64.5812 24.1533 64.9693 24.7436 64.9693 25.5697C64.9693 26.6321 64.5923 27.0936 63.9713 27.0936C63.3837 27.0936 62.9735 26.6321 62.9735 25.5697C62.9735 24.9367 63.2062 24.1533 63.9936 24.1533ZM60.6672 25.6877C60.6672 27.6087 62.1086 28.5959 63.9713 28.5959C65.8341 28.5959 67.2754 27.6301 67.2754 25.5697C67.2754 23.8207 66.0114 22.651 63.9602 22.651C61.9978 22.651 60.6672 23.7348 60.6672 25.6877V25.6877Z" fill="#040404"/>
<path d="M29.582 32H26.6696C26.475 31.9966 26.2858 31.9374 26.126 31.83H29.0384C29.1982 31.9374 29.3874 31.9966 29.582 32" fill="#858585"/>
<path d="M29.0388 31.8299H26.1264L23.0635 29.848H25.9758L29.0388 31.8299Z" fill="#808080"/>
<path d="M25.976 29.848H23.0636C22.6194 29.7091 22.3303 29.6526 22.0889 29.6526H25.0013C25.2427 29.6526 25.5318 29.7091 25.976 29.848Z" fill="#858585"/>
<path d="M23.4405 1.42634C23.504 1.38511 23.5674 1.34364 23.6319 1.30406C23.6701 1.28068 23.7092 1.25878 23.7477 1.23597C23.8062 1.20128 23.8645 1.16614 23.9239 1.1328C23.9661 1.10911 24.0092 1.08695 24.0517 1.06395C24.1088 1.03314 24.1655 1.00181 24.2233 0.972248C24.2503 0.958412 24.2778 0.94549 24.305 0.931932C24.3738 0.897557 24.4429 0.863598 24.5127 0.831007C24.5487 0.814185 24.5852 0.798148 24.6214 0.781804C24.6835 0.753828 24.7458 0.726263 24.8085 0.699706C24.8475 0.683201 24.8867 0.667156 24.926 0.651201C24.9875 0.626206 25.0493 0.601897 25.1113 0.578275C25.151 0.563189 25.1907 0.548186 25.2306 0.533666C25.2948 0.51028 25.3594 0.487953 25.4242 0.466045C25.462 0.453293 25.4995 0.440213 25.5375 0.427965C25.6119 0.403926 25.6868 0.381363 25.7619 0.359272C25.7905 0.350884 25.8187 0.341802 25.8473 0.333701C25.9512 0.304291 26.0557 0.276726 26.1609 0.251007C26.182 0.245853 26.2034 0.24154 26.2246 0.236539C26.3107 0.216205 26.3971 0.196654 26.484 0.178891C26.505 0.17461 26.526 0.170677 26.547 0.16654C26.6354 0.149147 26.7241 0.133073 26.8131 0.118319C26.8299 0.115553 26.8465 0.11248 26.8633 0.109808C26.9635 0.093848 27.0642 0.0796878 27.1653 0.0673269C27.1886 0.0644385 27.2119 0.0618322 27.2353 0.059129C27.3292 0.0482575 27.4233 0.0388066 27.5178 0.0307763C27.5287 0.0298668 27.5396 0.0286584 27.5505 0.0277902C27.6531 0.0196437 27.7561 0.0137482 27.8594 0.00919407C27.8839 0.00811449 27.9085 0.00715506 27.933 0.00631576C28.0377 0.00257431 28.1425 0 28.2477 0H25.3353C25.2301 0 25.1253 0.00257515 25.0207 0.00631576C24.9961 0.00719492 24.9715 0.00810944 24.947 0.00919407C24.8437 0.0137532 24.7407 0.0196361 24.6382 0.0277902C24.6272 0.0286635 24.6163 0.0298668 24.6054 0.0307763C24.5109 0.0386398 24.4168 0.0482567 24.3229 0.0591223C24.2996 0.0618254 24.2762 0.0644368 24.2529 0.0673252C24.1518 0.0798445 24.0512 0.0940047 23.9509 0.109806C23.9341 0.112478 23.9175 0.115552 23.9007 0.118317C23.8117 0.133026 23.723 0.149099 23.6347 0.166538C23.6136 0.170676 23.5926 0.174603 23.5716 0.178889C23.5584 0.181603 23.545 0.183931 23.5317 0.186707C23.4582 0.202095 23.3852 0.219309 23.3122 0.236537C23.291 0.241538 23.2696 0.245851 23.2485 0.251005C23.1433 0.276643 23.0388 0.304208 22.935 0.3337C22.9063 0.3418 22.8781 0.350879 22.8495 0.35927C22.7744 0.381361 22.6995 0.403924 22.6251 0.427963C22.5871 0.440216 22.5495 0.453298 22.5118 0.466054C22.447 0.48796 22.3824 0.510277 22.3182 0.533653C22.2783 0.548188 22.2386 0.563191 22.1989 0.578292C22.1368 0.601909 22.0751 0.626207 22.0136 0.651184C21.9743 0.667159 21.9351 0.683205 21.896 0.699735C21.8333 0.726271 21.7711 0.75381 21.7091 0.781765C21.6728 0.798125 21.6364 0.814172 21.6003 0.831015C21.5304 0.863647 21.4613 0.897642 21.3923 0.932067C21.3653 0.945574 21.3379 0.958434 21.311 0.972219C21.3059 0.97482 21.3007 0.977188 21.2956 0.979798C21.2429 1.00692 21.1912 1.03594 21.1391 1.0641C21.0966 1.08705 21.0536 1.10917 21.0115 1.13281C20.9521 1.16614 20.8938 1.20129 20.8353 1.23598C20.7968 1.25878 20.7577 1.28068 20.7195 1.30407C20.655 1.34365 20.5916 1.38512 20.5281 1.42634C20.4969 1.44654 20.4652 1.4658 20.4343 1.48639C20.3404 1.54899 20.2477 1.61336 20.1562 1.67949H23.0686C23.1601 1.61333 23.2528 1.54896 23.3467 1.48639C23.3776 1.46579 23.4093 1.44653 23.4405 1.42634Z" fill="#8F8F8F"/>
<path d="M20.2704 30.503H17.358C15.4898 30.5002 13.6492 30.0671 11.9883 29.2394C10.3274 28.4118 8.89391 27.2134 7.80634 25.7433C6.72409 24.2971 5.99404 22.6327 5.6709 20.8746H8.58329C8.90644 22.6327 9.63648 24.2971 10.7187 25.7433C11.8063 27.2134 13.2398 28.4118 14.9007 29.2394C16.5616 30.0671 18.4022 30.5002 20.2704 30.503Z" fill="#858585"/>
<path d="M8.58393 20.8746H5.67154C5.35309 20.7943 5.02623 20.7493 4.69727 20.7405H7.60966C7.93862 20.7493 8.26548 20.7943 8.58393 20.8746" fill="#858585"/>
<path d="M28.2471 0C28.9656 0.000379966 29.6813 0.0877096 30.3774 0.259957C35.0818 1.42029 37.9449 6.13513 36.7723 10.7909C36.4629 12.0445 35.8672 13.2152 35.029 14.2168C34.1907 15.2184 33.1313 16.0256 31.9285 16.5789C32.4722 19.4419 31.9229 22.3986 30.3828 24.899C29.5939 26.1715 29.2676 25.91 29.2829 27.4705L30.2487 31.0576C30.402 31.628 30.042 32 29.5822 32C29.3876 31.9966 29.1984 31.9374 29.0386 31.8299L25.9756 29.8481C25.5314 29.7091 25.2423 29.6526 25.0009 29.6526C24.5549 29.6526 24.2715 29.8453 23.474 30.0671C22.4324 30.3565 21.3541 30.5033 20.2704 30.503C18.4023 30.5002 16.5617 30.0671 14.9008 29.2394C13.2399 28.4118 11.8064 27.2134 10.7188 25.7433C9.63654 24.2971 8.90649 22.6327 8.58335 20.8746C8.26489 20.7943 7.93803 20.7493 7.60907 20.7405L3.84064 21.4726C3.77268 21.4861 3.70351 21.493 3.63413 21.4933C2.95657 21.4933 2.68659 20.7757 3.12678 20.1971L5.38018 17.2367C5.87498 15.9862 5.59388 15.9589 5.32427 14.694C4.31706 9.95037 6.28782 4.8725 10.656 2.09861C12.4853 0.931687 14.6116 0.27521 16.8012 0.201273C18.9908 0.127336 21.1591 0.638799 23.0681 1.6795C24.5617 0.593057 26.3786 0.00384503 28.2471 0V0Z" fill="#E8E8E8"/>
<path d="M11.0723 1.84656C11.1845 1.78136 11.2974 1.71806 11.4108 1.65666C11.4299 1.64639 11.4491 1.63652 11.4681 1.62636C11.5549 1.58012 11.6423 1.53572 11.7298 1.49177C11.7882 1.46243 11.8468 1.43356 11.9054 1.40515C11.9758 1.37122 12.0463 1.33809 12.1171 1.30576C12.1761 1.2787 12.2351 1.2518 12.2943 1.22575C12.3656 1.19436 12.4373 1.16411 12.509 1.13418C12.5681 1.10955 12.6271 1.08486 12.6864 1.06122C12.7592 1.03217 12.8324 1.00447 12.9055 0.976913C12.9643 0.954786 13.023 0.932377 13.0819 0.911206C13.1566 0.884412 13.2315 0.859171 13.3065 0.833909C13.3645 0.814357 13.4223 0.794312 13.4805 0.775675C13.5578 0.750896 13.6355 0.727901 13.7131 0.704731C13.7693 0.687964 13.8254 0.670474 13.8817 0.654551C13.9635 0.631401 14.0457 0.610272 14.1279 0.58889C14.1804 0.575234 14.2327 0.560627 14.2853 0.54769C14.3789 0.524658 14.4728 0.503909 14.5667 0.48316C14.608 0.474037 14.6492 0.463798 14.6905 0.455112C14.8149 0.428987 14.9395 0.405266 15.0643 0.383098C15.0996 0.376843 15.1348 0.371195 15.1701 0.365253C15.2642 0.349392 15.3584 0.334634 15.4527 0.320979C15.4904 0.315531 15.5282 0.309975 15.5659 0.304881C15.683 0.289077 15.8002 0.27465 15.9175 0.262271C15.9266 0.261315 15.9356 0.260055 15.9447 0.259115C16.0707 0.246106 16.1967 0.235611 16.3228 0.226525C16.3591 0.223909 16.3954 0.221848 16.4317 0.219556C16.5262 0.213599 16.6206 0.208733 16.7151 0.204959C16.7521 0.203484 16.7892 0.201839 16.8262 0.200698C16.9525 0.196808 17.0788 0.194214 17.2049 0.194214H14.2925C14.1664 0.194209 14.0401 0.196805 13.9139 0.200698C13.8768 0.201839 13.8397 0.203484 13.8027 0.204959C13.7082 0.208727 13.6138 0.213592 13.5193 0.219556C13.483 0.221848 13.4467 0.223915 13.4104 0.226525C13.2843 0.235612 13.1582 0.246108 13.0322 0.259127C13.0234 0.260027 13.0147 0.261244 13.006 0.262165C12.8884 0.274567 12.7709 0.289035 12.6535 0.304881C12.6158 0.309965 12.5782 0.315505 12.5405 0.320949C12.446 0.3346 12.3516 0.349385 12.2573 0.365305C12.2223 0.371215 12.1872 0.376833 12.1522 0.383053C12.0305 0.404655 11.909 0.427558 11.7877 0.452923C11.7845 0.453607 11.7812 0.454449 11.778 0.455132C11.7372 0.463696 11.6967 0.473795 11.6559 0.482785C11.5614 0.503652 11.4669 0.524545 11.3727 0.547721C11.3205 0.560554 11.2686 0.57506 11.2165 0.588602C11.134 0.610076 11.0514 0.631314 10.9691 0.654582C10.9129 0.670474 10.857 0.687934 10.801 0.704659C10.7233 0.727845 10.6456 0.750855 10.5682 0.775655C10.51 0.794302 10.452 0.814367 10.394 0.833934C10.3191 0.859191 10.2442 0.884412 10.1696 0.911201C10.1106 0.932372 10.0519 0.954781 9.99315 0.976908C9.91997 1.00447 9.84684 1.03216 9.77399 1.06121C9.71471 1.08485 9.65569 1.10954 9.59665 1.13417C9.5249 1.1641 9.45326 1.19435 9.38189 1.22574C9.32266 1.25179 9.26369 1.27869 9.20473 1.30575C9.13398 1.33823 9.06342 1.37136 8.99305 1.40515C8.93433 1.43347 8.87579 1.46234 8.81741 1.49176C8.78208 1.50951 8.7464 1.52604 8.71118 1.54415C8.65917 1.57091 8.60751 1.59878 8.55575 1.62635C8.53667 1.63652 8.51749 1.64637 8.49845 1.65665C8.38493 1.7179 8.27209 1.7812 8.1599 1.84655C8.13536 1.8608 8.11093 1.87531 8.08646 1.88974C7.97163 1.95751 7.85725 2.02662 7.74387 2.09857C3.37571 4.87245 1.40495 9.95032 2.41216 14.694C2.68177 15.9589 2.96287 15.9862 2.46807 17.2367L0.214676 20.197C-0.225515 20.7757 0.0444586 21.4932 0.722026 21.4932H3.63441C2.95685 21.4932 2.68687 20.7757 3.12706 20.197L5.38046 17.2367C5.87526 15.9862 5.59416 15.9589 5.32454 14.694C4.31734 9.95032 6.2881 4.87245 10.6563 2.09857C10.7696 2.02662 10.884 1.95751 10.9988 1.88974C11.0233 1.87531 11.0478 1.8608 11.0723 1.84656Z" fill="#858585"/>
<path fill-rule="evenodd" clip-rule="evenodd" d="M27.4278 5.68253C28.9932 8.00808 29.6741 10.7882 29.3535 13.5464C29.033 16.3045 27.7312 18.8689 25.6711 20.7998C23.611 22.7308 20.9211 23.908 18.0624 24.1297C15.2038 24.3514 12.3544 23.6038 10.0029 22.0151C8.71563 21.1454 9.01057 20.8327 7.37099 20.7538L3.54513 21.5078C2.70639 21.673 2.32372 20.8786 2.80968 20.2448L5.07935 17.2844C5.57328 16.0372 5.2869 16.0127 5.00413 14.7563C4.38944 12.0235 4.78388 9.16874 6.11884 6.68834C7.4538 4.20793 9.64483 2.25883 12.3109 1.18001C14.977 0.101186 17.9494 -0.0391155 20.7113 0.783504C23.4732 1.60612 25.8498 3.33962 27.4278 5.68253V5.68253Z" fill="#E42125"/>
<path fill-rule="evenodd" clip-rule="evenodd" d="M29.1469 0.260087C31.1687 0.748171 32.9521 1.90173 34.1914 3.523C35.4306 5.14426 36.0486 7.13226 35.9392 9.14617C35.8299 11.1601 35.0001 13.0745 33.5922 14.5611C32.1842 16.0478 30.2857 17.0141 28.2222 17.2945C27.0928 17.448 27.0899 17.1402 26.177 17.8833L24.5264 20.1163C24.1645 20.6058 23.555 20.3663 23.4894 19.7962L23.184 17.1341C22.8094 16.2341 22.6445 16.358 21.8519 15.8247C20.1279 14.6648 18.8786 12.9567 18.3212 10.9976C17.7638 9.03846 17.9335 6.9522 18.8008 5.10164C19.6682 3.25108 21.1783 1.75328 23.0685 0.868719C24.9588 -0.0158416 27.1096 -0.231203 29.1469 0.260087V0.260087Z" fill="#2E90D1"/>
<path fill-rule="evenodd" clip-rule="evenodd" d="M11.7323 9.97326C13.9204 8.25558 16.6576 7.32803 19.4748 7.34961C22.2921 7.37119 25.0138 8.34057 27.1734 10.0916C29.3331 11.8425 30.7961 14.2661 31.3117 16.9467C31.8274 19.6273 31.3634 22.398 29.9995 24.7838C29.2529 26.0898 28.9071 25.8428 28.995 27.4014L30.1466 30.9423C30.3989 31.7185 29.636 32.1612 28.9465 31.7667L25.7262 29.9226C24.4167 29.5828 24.4212 29.856 23.1816 30.2515C20.4855 31.1118 17.5632 31.0302 14.9228 30.021C12.2824 29.0118 10.091 27.1389 8.72971 24.7279C7.36843 22.3169 6.92339 19.5203 7.47198 16.8246C8.02056 14.1289 9.52807 11.7046 11.7323 9.97326V9.97326Z" fill="#78258D"/>
<path d="M28.2713 14.4897L27.4012 14.995H21.3975L22.5286 14.4897H28.2713Z" fill="#808080"/>
<path d="M22.5519 14.6353L21.2941 15.2469C21.2805 15.245 21.2665 15.2468 21.2539 15.2521L22.5117 14.6405C22.5243 14.6351 22.5383 14.6333 22.5519 14.6353Z" fill="#858585"/>
<path d="M18.1182 21.7848L16.8604 22.3964C17.7293 21.6718 18.5228 20.8666 19.2294 19.9923L20.4872 19.3806C19.7806 20.255 18.9871 21.0602 18.1182 21.7848" fill="#858585"/>
<path d="M25.2277 26.1574L23.9699 26.769C23.7933 26.8622 23.5963 26.9131 23.3952 26.9176C22.8643 26.9176 22.3146 26.5173 21.2347 25.7264C19.9153 24.7628 16.9263 22.5381 16.8604 22.3964L18.1182 21.7848C18.1842 21.9265 21.1731 24.1512 22.4925 25.1147C23.5724 25.9057 24.1221 26.306 24.653 26.306C24.8541 26.3015 25.0511 26.2505 25.2277 26.1574" fill="#858585"/>
<path d="M20.4872 19.3806C20.9696 19.6467 25.3869 22.9089 26.7987 23.9134C27.3354 24.2945 27.3671 24.559 26.8369 24.9856C25.7411 25.8696 25.2074 26.306 24.653 26.306C24.1221 26.306 23.5724 25.9056 22.4925 25.1147C21.1731 24.1512 18.1842 21.9265 18.1182 21.7848C18.9871 21.0602 19.7806 20.255 20.4872 19.3806V19.3806Z" fill="white"/>
<path d="M9.71582 22.5845L8.45801 23.1961C8.65846 23.056 9.73927 22.2987 10.3686 21.9287C12.9758 20.3983 15.3268 18.6097 16.8752 16.0072C16.9482 15.8844 17.0197 15.7584 17.091 15.6309C17.2457 15.323 17.38 15.0059 17.4933 14.6815C17.7915 13.8793 18.0206 13.0546 18.1783 12.2159L19.3964 11.2896C19.3665 11.5304 19.4378 11.2608 19.2224 12.5527C19.1527 12.9707 18.9054 13.6731 18.7511 14.0699C18.6143 14.4367 18.4846 15.2677 18.1783 15.6685C16.3328 18.0828 14.2336 19.7867 11.6264 21.317C10.9971 21.687 9.91627 22.4443 9.71582 22.5845" fill="#858585"/>
<path d="M11.5112 25.4407L10.2534 26.0524L8.44727 23.2546L9.70508 22.6429L11.5112 25.4407Z" fill="#808080"/>
<path d="M28.0971 11.2898L28.2711 14.4897H22.5285C22.4909 14.4862 22.1929 15.3422 21.9726 15.9137C21.4783 17.1921 21.0398 17.8361 20.2109 18.9099C19.0168 20.4544 17.5027 21.8006 15.7399 22.9909C14.7599 23.6537 12.5854 24.855 11.8 25.2817C11.6201 25.3825 11.5164 25.4378 11.5109 25.4407L9.70478 22.6429C9.6984 22.6338 9.69595 22.6226 9.69795 22.6117C9.69995 22.6008 9.70624 22.5911 9.7155 22.5847C9.91595 22.4445 10.9968 21.6872 11.6261 21.3172C14.2333 19.7869 16.5843 17.9983 18.1327 15.3957C18.2057 15.2729 18.2749 15.1457 18.3485 15.0195C18.6363 14.5262 18.9174 13.5016 19.0747 12.7441C19.3413 11.4612 19.3662 11.5306 19.3961 11.2898C19.3996 11.2682 28.0971 11.2898 28.0971 11.2898Z" fill="white"/>
<path d="M9.70478 22.643L8.44697 23.2546C8.44058 23.2455 8.43813 23.2343 8.44013 23.2234C8.44213 23.2125 8.44843 23.2028 8.45769 23.1964L9.7155 22.5847C9.70624 22.5912 9.69994 22.6009 9.69794 22.6117C9.69594 22.6226 9.69839 22.6338 9.70478 22.643" fill="#858585"/>
<path d="M25.7109 5.40234L24.4531 6.01396H23.4697L24.7275 5.40234H25.7109Z" fill="#808080"/>
<path d="M22.999 9.34091L21.7412 9.95256C21.2525 10.1884 20.7135 10.31 20.1674 10.3076C20.1593 10.3076 20.1509 10.3076 20.1427 10.3075C18.1675 10.2949 16.6459 8.81336 16.6396 6.89726C16.639 6.27152 16.8184 5.65798 17.1577 5.12532C17.497 4.59266 17.9827 4.16191 18.5606 3.8813L19.8184 3.26965C19.2405 3.55026 18.7548 3.98101 18.4155 4.51367C18.0762 5.04634 17.8969 5.65988 17.8975 6.28562C17.9038 8.20172 19.4253 9.68327 21.4005 9.69587C21.4087 9.69593 21.4171 9.69594 21.4253 9.69594C21.9713 9.69834 22.5103 9.57674 22.999 9.34091" fill="#858585"/>
<path d="M25.6861 2.91785L25.7111 5.40233H24.7276C24.815 5.69838 24.861 6.00445 24.8643 6.31234C24.8851 8.21422 23.3757 9.6959 21.4253 9.6959C21.4171 9.6959 21.4087 9.69588 21.4006 9.69582C19.4254 9.68323 17.9038 8.20167 17.8975 6.28557C17.8961 5.40217 18.2539 4.55372 18.8936 3.92357C19.5333 3.29341 20.4035 2.93215 21.3162 2.91785C21.4211 2.91785 21.5262 2.921 21.6296 2.92886L25.6861 2.91785Z" fill="white"/>
<path d="M40.5618 10.8636V16.7647H44.1406V18.5607H37.9551V10.8636H40.5618Z" fill="#040404"/>
<path d="M47.3775 14.6801H45.1683C45.1683 14.0672 45.4187 13.6004 45.9194 13.2796C46.4201 12.959 47.2227 12.7986 48.3273 12.7986C48.7172 12.7947 49.1068 12.8197 49.4927 12.8734C49.7728 12.9091 50.0451 12.9886 50.299 13.1086C50.4843 13.1988 50.6554 13.3139 50.8072 13.4507C50.9432 13.5842 51.0404 13.7502 51.0888 13.9318C51.1432 14.11 51.182 14.2924 51.2047 14.477C51.2254 14.6902 51.2347 14.9043 51.2324 15.1184V17.7375C51.2265 17.8781 51.2433 18.0188 51.2821 18.1545C51.3387 18.2754 51.4284 18.3789 51.5417 18.4537V18.5607H49.1668L49.0564 17.962C48.4967 18.4681 47.7714 18.7211 46.8804 18.721C46.2911 18.721 45.7996 18.5767 45.4057 18.2881C45.0117 17.9994 44.8148 17.5807 44.8148 17.0319C44.8003 16.6789 44.9071 16.3311 45.1186 16.0431C45.3091 15.7915 45.5753 15.6029 45.8807 15.5032C46.2057 15.3986 46.5379 15.3165 46.8749 15.2574C47.2036 15.1968 47.5354 15.154 47.869 15.1291C48.1311 15.1175 48.389 15.0614 48.6311 14.9634C48.8336 14.8744 48.9349 14.7515 48.9349 14.5946C48.9349 14.2882 48.6845 14.135 48.1838 14.1349C47.6904 14.1349 47.4216 14.3166 47.3775 14.6801ZM48.9349 16.0805C48.694 16.1799 48.4419 16.2517 48.1838 16.2943C47.9242 16.335 47.6727 16.4144 47.4382 16.5295C47.3563 16.5759 47.2897 16.6435 47.2457 16.7248C47.2018 16.8061 47.1824 16.8977 47.1897 16.9892C47.189 17.0581 47.207 17.1259 47.2418 17.186C47.2767 17.246 47.3273 17.2961 47.3884 17.3313C47.5482 17.4238 47.7327 17.4684 47.9187 17.4595C48.3015 17.4595 48.5665 17.3455 48.714 17.1175C48.8612 16.8894 48.9349 16.5438 48.9349 16.0805V16.0805Z" fill="#040404"/>
<path d="M54.546 12.9589V13.8355C55.0762 13.1443 55.7279 12.7987 56.5011 12.7986C57.9959 12.7986 58.7434 13.6004 58.7435 15.2039V18.5606H56.4459V15.5994C56.4459 14.9011 56.1771 14.5519 55.6395 14.5518C55.3007 14.5518 55.0669 14.648 54.9381 14.8404C54.8092 15.0329 54.7448 15.3215 54.7448 15.7063V18.5606H52.4473V12.9589H54.546Z" fill="#040404"/>
<path d="M60.0358 18.8494H62.3442C62.3884 19.106 62.602 19.2342 62.9849 19.2342C63.3163 19.2342 63.5537 19.1522 63.6972 18.9883C63.8411 18.8243 63.9128 18.5429 63.9126 18.1438V17.6842C63.493 18.0903 62.9407 18.2935 62.2557 18.2935C61.4827 18.2935 60.8697 18.0387 60.4168 17.5291C59.9639 17.0197 59.7374 16.3907 59.7374 15.6423C59.7353 15.2936 59.7836 14.9464 59.881 14.6107C59.9751 14.2897 60.1205 13.9848 60.3119 13.7073C60.5142 13.4203 60.7927 13.1913 61.1181 13.0446C61.4947 12.8742 61.9067 12.7901 62.3222 12.7987C62.6655 12.798 63.0035 12.8807 63.3053 13.0392C63.6121 13.1975 63.8767 13.4226 64.0784 13.6967V12.959H66.0998V17.4703C66.0998 17.7982 66.0906 18.069 66.0721 18.2828C66.0497 18.5192 66.0072 18.7534 65.9452 18.983C65.8924 19.2089 65.7886 19.4206 65.6414 19.6031C65.4879 19.7782 65.3094 19.9311 65.1112 20.0574C64.854 20.2149 64.5666 20.3203 64.2662 20.3674C63.8652 20.4361 63.4583 20.4683 63.0511 20.4636C62.1011 20.4636 61.3758 20.3086 60.875 19.9986C60.3743 19.6886 60.0946 19.3055 60.0358 18.8494ZM62.9407 14.3915C62.3368 14.3915 62.0349 14.8156 62.035 15.6637C62.0255 15.9393 62.1067 16.2107 62.2669 16.4387C62.3426 16.542 62.444 16.6251 62.5619 16.6803C62.6797 16.7354 62.81 16.7608 62.9407 16.7541C63.272 16.7541 63.5169 16.6436 63.6753 16.4227C63.8405 16.1786 63.9234 15.891 63.9126 15.5995C63.925 15.2951 63.8443 14.9939 63.6807 14.7336C63.5261 14.5056 63.2794 14.3916 62.9407 14.3915V14.3915Z" fill="#040404"/>
<path d="M67.3145 12.959H69.6121V15.9843C69.6121 16.3549 69.6783 16.6169 69.8109 16.7701C69.9434 16.9234 70.1533 17 70.4405 17C70.7569 17 70.9815 16.8895 71.1143 16.6685C71.2468 16.4477 71.313 16.1092 71.313 15.653V12.959H73.6106V18.5607H71.4787V17.7375C71.1988 18.1154 70.9043 18.3737 70.5951 18.5126C70.2859 18.6515 69.8845 18.721 69.3911 18.721C68.743 18.721 68.2349 18.5251 67.8667 18.1331C67.4984 17.7412 67.3143 17.1532 67.3145 16.3692V12.959Z" fill="#040404"/>
<path d="M77.1118 14.6801H74.9026C74.9026 14.0672 75.153 13.6004 75.6537 13.2796C76.1544 12.959 76.9571 12.7986 78.0617 12.7986C78.4516 12.7947 78.8412 12.8197 79.2271 12.8734C79.5072 12.9091 79.7795 12.9886 80.0334 13.1086C80.2186 13.1988 80.3897 13.3139 80.5414 13.4507C80.6776 13.5841 80.7748 13.7501 80.8232 13.9318C80.8776 14.11 80.9163 14.2924 80.9391 14.477C80.9598 14.6902 80.969 14.9043 80.9668 15.1184V17.7375C80.9609 17.8781 80.9776 18.0188 81.0164 18.1545C81.0731 18.2753 81.1629 18.3788 81.276 18.4537V18.5607H78.9013L78.7907 17.962C78.2311 18.4681 77.5057 18.7211 76.6147 18.721C76.0255 18.721 75.534 18.5767 75.1401 18.2881C74.7462 17.9994 74.5492 17.5807 74.5492 17.0319C74.5346 16.6789 74.6415 16.3311 74.853 16.0431C75.0435 15.7915 75.3096 15.6029 75.6151 15.5032C75.9401 15.3986 76.2723 15.3165 76.6093 15.2574C76.9379 15.1968 77.2697 15.154 77.6033 15.1291C77.8654 15.1175 78.1234 15.0614 78.3655 14.9634C78.568 14.8744 78.6692 14.7515 78.6692 14.5946C78.6692 14.2882 78.4188 14.135 77.9181 14.1349C77.4248 14.1349 77.156 14.3166 77.1118 14.6801ZM78.6692 16.0805C78.4283 16.18 78.1762 16.2517 77.9181 16.2943C77.6585 16.335 77.407 16.4144 77.1725 16.5295C77.0907 16.5759 77.024 16.6436 76.9801 16.7248C76.9362 16.8061 76.9168 16.8977 76.9241 16.9892C76.9233 17.0581 76.9413 17.126 76.9762 17.186C77.0111 17.246 77.0617 17.2961 77.1229 17.3313C77.2826 17.4238 77.4671 17.4684 77.6531 17.4595C78.0358 17.4595 78.3009 17.3455 78.4484 17.1175C78.5955 16.8894 78.6691 16.5438 78.6692 16.0805V16.0805Z" fill="#040404"/>
<path d="M82.2593 18.8494H84.5678C84.6121 19.106 84.8256 19.2342 85.2086 19.2342C85.5399 19.2342 85.7774 19.1522 85.921 18.9883C86.0645 18.8243 86.1363 18.5429 86.1364 18.1438V17.6842C85.7166 18.0903 85.1643 18.2935 84.4796 18.2935C83.7063 18.2935 83.0933 18.0387 82.6404 17.5291C82.1875 17.0197 81.9611 16.3907 81.961 15.6423C81.9589 15.2936 82.0072 14.9464 82.1046 14.6107C82.1988 14.2897 82.3441 13.9849 82.5354 13.7073C82.7378 13.4203 83.0163 13.1914 83.3417 13.0445C83.7182 12.8742 84.1302 12.7901 84.5457 12.7987C84.8891 12.798 85.2271 12.8807 85.5289 13.0392C85.8357 13.1975 86.1003 13.4226 86.302 13.6967V12.959H88.3235V17.4703C88.3235 17.7982 88.3142 18.069 88.2958 18.2828C88.2733 18.5192 88.2309 18.7534 88.1688 18.983C88.116 19.2089 88.0123 19.4206 87.865 19.6031C87.7116 19.7782 87.533 19.9312 87.3348 20.0574C87.0777 20.2149 86.7903 20.3203 86.4899 20.3674C86.0888 20.4361 85.682 20.4683 85.2747 20.4636C84.3249 20.4636 83.5996 20.3086 83.0988 19.9986C82.598 19.6886 82.3181 19.3055 82.2593 18.8494ZM85.1643 14.3915C84.5605 14.3915 84.2585 14.8156 84.2586 15.6637C84.2491 15.9393 84.3303 16.2107 84.4905 16.4387C84.5662 16.542 84.6677 16.6252 84.7855 16.6803C84.9033 16.7355 85.0336 16.7608 85.1643 16.7541C85.4957 16.7541 85.7405 16.6436 85.8989 16.4227C86.0642 16.1787 86.1471 15.8911 86.1364 15.5995C86.1488 15.2951 86.0681 14.9938 85.9043 14.7336C85.7497 14.5056 85.503 14.3916 85.1643 14.3915Z" fill="#040404"/>
<path d="M96.0002 16.2622H91.615C91.6101 16.4092 91.637 16.5555 91.6941 16.6917C91.7511 16.828 91.8371 16.9512 91.9463 17.0533C92.0526 17.1544 92.1786 17.234 92.3171 17.2872C92.4556 17.3404 92.6037 17.3663 92.7526 17.3633C93.1651 17.3633 93.4523 17.1994 93.6143 16.8716H95.8123C95.7336 17.1738 95.5882 17.456 95.3861 17.6987C95.1839 17.9413 94.9299 18.1388 94.6414 18.2774C94.0105 18.5807 93.3135 18.7329 92.6092 18.721C91.6443 18.721 90.8545 18.4644 90.2398 17.9513C89.6248 17.4382 89.3173 16.7255 89.3174 15.8132C89.3174 14.9082 89.6285 14.1795 90.2508 13.6271C90.873 13.0748 91.6554 12.7986 92.598 12.7986C93.6584 12.7986 94.4905 13.1104 95.0945 13.734C95.6982 14.3577 96.0001 15.2004 96.0002 16.2622ZM91.615 15.1291H93.7026C93.7025 15.0019 93.6755 14.876 93.6233 14.7592C93.571 14.6425 93.4946 14.5373 93.3988 14.4502C93.3071 14.3568 93.1966 14.2825 93.0741 14.2319C92.9516 14.1813 92.8197 14.1556 92.6865 14.1562C92.3476 14.1562 92.0843 14.2435 91.8967 14.4181C91.8011 14.5111 91.7266 14.6223 91.6781 14.7448C91.6296 14.8672 91.6081 14.9981 91.615 15.1291V15.1291Z" fill="#040404"/>
</svg>
