<svg xmlns="http://www.w3.org/2000/svg" version="1.1" xmlns:xlink="http://www.w3.org/1999/xlink" xmlns:svgjs="http://svgjs.dev/svgjs" width="32" height="32"><svg width="32" height="32" viewBox="0 0 32 32" fill="none" xmlns="http://www.w3.org/2000/svg">
<path d="M25.5604 31.9999H23.044C22.8758 31.9965 22.7123 31.9373 22.5742 31.8298H25.0907C25.2288 31.9373 25.3923 31.9965 25.5604 31.9999" fill="#858585"></path>
<path d="M25.0917 31.8299H22.5753L19.9287 29.848H22.4451L25.0917 31.8299Z" fill="#808080"></path>
<path d="M22.4456 29.848H19.9291C19.5453 29.7091 19.2955 29.6526 19.0869 29.6526H21.6034C21.812 29.6526 22.0618 29.7091 22.4456 29.848Z" fill="#858585"></path>
<path d="M20.2538 1.42634C20.3087 1.38511 20.3634 1.34364 20.4192 1.30406C20.4522 1.28068 20.4859 1.25878 20.5192 1.23597C20.5698 1.20128 20.6202 1.16614 20.6715 1.13281C20.708 1.10911 20.7452 1.08695 20.782 1.06395C20.8312 1.03314 20.8803 1.00181 20.9302 0.972249C20.9535 0.958413 20.9773 0.945491 21.0008 0.931932C21.0603 0.897558 21.12 0.863599 21.1803 0.831008C21.2114 0.814185 21.2428 0.798149 21.2742 0.781805C21.3278 0.753828 21.3816 0.726264 21.4358 0.699706C21.4695 0.683201 21.5034 0.667157 21.5373 0.651201C21.5905 0.626207 21.6439 0.601898 21.6975 0.578275C21.7318 0.56319 21.7661 0.548187 21.8005 0.533667C21.856 0.51028 21.9119 0.487954 21.9679 0.466046C22.0005 0.453294 22.0329 0.440213 22.0657 0.427965C22.13 0.403926 22.1947 0.381363 22.2597 0.359272C22.2843 0.350884 22.3087 0.341802 22.3335 0.333702C22.4232 0.304291 22.5135 0.276726 22.6044 0.251007C22.6226 0.245853 22.6411 0.24154 22.6594 0.236539C22.7339 0.216206 22.8085 0.196655 22.8836 0.178891C22.9017 0.17461 22.9199 0.170677 22.938 0.16654C23.0144 0.149147 23.091 0.133074 23.1679 0.118319C23.1824 0.115553 23.1968 0.11248 23.2113 0.109808C23.2979 0.0938481 23.3849 0.0796879 23.4722 0.0673269C23.4924 0.0644385 23.5125 0.0618322 23.5327 0.0591291C23.6138 0.0482575 23.6952 0.0388066 23.7768 0.0307763C23.7863 0.0298669 23.7957 0.0286584 23.8051 0.0277902C23.8938 0.0196437 23.9828 0.0137482 24.0719 0.00919408C24.0932 0.0081145 24.1144 0.00715506 24.1356 0.00631577C24.226 0.00257431 24.3166 0 24.4075 0H21.891C21.8001 0 21.7096 0.00257515 21.6191 0.00631577C21.5979 0.00719492 21.5767 0.00810945 21.5555 0.00919408C21.4663 0.0137532 21.3773 0.0196361 21.2886 0.0277902C21.2792 0.0286635 21.2698 0.0298669 21.2603 0.0307763C21.1787 0.0386399 21.0974 0.0482567 21.0163 0.0591223C20.9961 0.0618255 20.9759 0.0644368 20.9557 0.0673253C20.8684 0.0798445 20.7815 0.0940048 20.6948 0.109806C20.6803 0.112478 20.6659 0.115552 20.6514 0.118317C20.5745 0.133026 20.4979 0.1491 20.4216 0.166538C20.4034 0.170676 20.3852 0.174603 20.3671 0.17889C20.3556 0.181604 20.3441 0.183931 20.3326 0.186707C20.2691 0.202095 20.206 0.219309 20.1429 0.236537C20.1246 0.241539 20.1061 0.245851 20.0879 0.251006C19.997 0.276644 19.9067 0.304208 19.817 0.3337C19.7922 0.3418 19.7678 0.350879 19.7432 0.35927C19.6783 0.381361 19.6135 0.403925 19.5492 0.427963C19.5164 0.440217 19.484 0.453298 19.4514 0.466054C19.3954 0.487961 19.3396 0.510277 19.2841 0.533653C19.2496 0.548189 19.2153 0.563191 19.181 0.578292C19.1274 0.60191 19.074 0.626207 19.0209 0.651184C18.9869 0.667159 18.953 0.683205 18.9193 0.699735C18.8651 0.726271 18.8114 0.753811 18.7578 0.781766C18.7264 0.798126 18.6949 0.814173 18.6638 0.831016C18.6034 0.863648 18.5436 0.897643 18.4841 0.932068C18.4607 0.945575 18.437 0.958435 18.4137 0.97222C18.4094 0.974821 18.4049 0.977189 18.4005 0.979799C18.3549 1.00692 18.3103 1.03594 18.2652 1.0641C18.2285 1.08705 18.1914 1.10917 18.155 1.13281C18.1037 1.16614 18.0533 1.20129 18.0027 1.23598C17.9694 1.25878 17.9357 1.28068 17.9027 1.30407C17.8469 1.34365 17.7922 1.38512 17.7373 1.42634C17.7104 1.44654 17.683 1.4658 17.6563 1.48639C17.5751 1.54899 17.4951 1.61336 17.416 1.6795H19.9325C20.0115 1.61333 20.0916 1.54896 20.1727 1.48639C20.1994 1.46579 20.2269 1.44654 20.2538 1.42634Z" fill="#8F8F8F"></path>
<path d="M17.5132 30.503H14.9968C13.3826 30.5002 11.7922 30.0671 10.3571 29.2394C8.92194 28.4118 7.68331 27.2134 6.74358 25.7433C5.80846 24.2972 5.17765 22.6327 4.89844 20.8746H7.41492C7.69413 22.6327 8.32494 24.2972 9.26006 25.7433C10.1998 27.2134 11.4384 28.4118 12.8735 29.2394C14.3087 30.0671 15.8991 30.5002 17.5132 30.503Z" fill="#858585"></path>
<path d="M7.41397 20.8745H4.8975C4.62234 20.7942 4.33991 20.7492 4.05566 20.7404H6.57214C6.85639 20.7492 7.13881 20.7942 7.41397 20.8745" fill="#858585"></path>
<path d="M24.4065 0C25.0274 0.000379966 25.6458 0.0877097 26.2473 0.259957C30.3122 1.42029 32.786 6.13514 31.7728 10.7909C31.5055 12.0446 30.9908 13.2152 30.2665 14.2168C29.5422 15.2185 28.6268 16.0256 27.5875 16.5789C28.0573 19.4419 27.5827 22.3986 26.2519 24.899C25.5702 26.1715 25.2883 25.9101 25.3015 27.4706L26.1361 31.0577C26.2685 31.6281 25.9574 32 25.5602 32C25.392 31.9966 25.2285 31.9374 25.0904 31.83L22.4438 29.8481C22.06 29.7091 21.8102 29.6526 21.6016 29.6526C21.2163 29.6526 20.9714 29.8454 20.2823 30.0671C19.3823 30.3565 18.4506 30.5033 17.5142 30.5031C15.9001 30.5002 14.3097 30.0671 12.8745 29.2394C11.4394 28.4118 10.2008 27.2134 9.26105 25.7433C8.32593 24.2972 7.69512 22.6327 7.41591 20.8746C7.14075 20.7943 6.85832 20.7493 6.57408 20.7405L3.31793 21.4726C3.25921 21.4861 3.19944 21.493 3.1395 21.4933C2.55404 21.4933 2.32077 20.7758 2.70112 20.1971L4.64819 17.2368C5.07572 15.9862 4.83283 15.959 4.59987 14.694C3.72958 9.95038 5.43244 4.8725 9.20679 2.09862C10.7874 0.931687 12.6246 0.27521 14.5166 0.201273C16.4086 0.127336 18.2821 0.638799 19.9315 1.6795C21.2221 0.593058 22.7921 0.00384503 24.4065 0V0Z" fill="#E8E8E8"></path>
<path d="M9.56711 1.84668C9.66408 1.78148 9.76159 1.71818 9.85963 1.65678C9.87609 1.64651 9.89266 1.63664 9.90915 1.62648C9.98415 1.58024 10.0596 1.53584 10.1352 1.49189C10.1857 1.46256 10.2363 1.43368 10.287 1.40528C10.3478 1.37134 10.4087 1.33821 10.4699 1.30588C10.5208 1.27882 10.5718 1.25192 10.623 1.22587C10.6846 1.19448 10.7466 1.16423 10.8085 1.1343C10.8596 1.10967 10.9106 1.08498 10.9618 1.06134C11.0247 1.03229 11.0879 1.0046 11.1511 0.977036C11.2019 0.954909 11.2526 0.932499 11.3036 0.911329C11.3681 0.884535 11.4328 0.859294 11.4976 0.834032C11.5477 0.81448 11.5977 0.794434 11.6479 0.775798C11.7148 0.751019 11.7819 0.728023 11.849 0.704853C11.8975 0.688087 11.9459 0.670596 11.9946 0.654673C12.0653 0.631524 12.1363 0.610394 12.2073 0.589013C12.2527 0.575356 12.2979 0.560749 12.3433 0.547812C12.4242 0.52478 12.5053 0.504032 12.5865 0.483282C12.6222 0.474159 12.6577 0.463921 12.6935 0.455234C12.8009 0.429109 12.9086 0.405389 13.0165 0.38322C13.0469 0.376965 13.0774 0.371317 13.1079 0.365375C13.1892 0.349515 13.2706 0.334757 13.3521 0.321101C13.3847 0.315653 13.4173 0.310097 13.4499 0.305003C13.5511 0.289199 13.6523 0.274772 13.7537 0.262393C13.7615 0.261437 13.7693 0.260177 13.7772 0.259237C13.886 0.246228 13.9949 0.235733 14.1039 0.226647C14.1352 0.224031 14.1666 0.22197 14.198 0.219678C14.2796 0.213721 14.3612 0.208855 14.4428 0.205081C14.4748 0.203606 14.5068 0.201961 14.5389 0.20082C14.648 0.19693 14.7571 0.194336 14.8661 0.194336H12.3496C12.2406 0.194331 12.1315 0.196927 12.0224 0.20082C11.9904 0.201961 11.9584 0.203606 11.9263 0.205081C11.8447 0.208849 11.7631 0.213714 11.6815 0.219678C11.6501 0.22197 11.6188 0.224037 11.5874 0.226647C11.4784 0.235735 11.3695 0.246231 11.2606 0.259249C11.253 0.260149 11.2455 0.261366 11.2379 0.262287C11.1363 0.274689 11.0348 0.289158 10.9334 0.305003C10.9008 0.310087 10.8683 0.315627 10.8357 0.321071C10.7541 0.334722 10.6725 0.349508 10.591 0.365427C10.5607 0.371337 10.5304 0.376955 10.5002 0.383175C10.3951 0.404777 10.2901 0.42768 10.1853 0.453045C10.1825 0.453729 10.1797 0.454572 10.1769 0.455255C10.1417 0.463818 10.1066 0.473917 10.0714 0.482907C9.98976 0.503774 9.9081 0.524667 9.82669 0.547843C9.78161 0.560677 9.73675 0.575182 9.69175 0.588725C9.62042 0.610198 9.54906 0.631437 9.47798 0.654704C9.42943 0.670596 9.38112 0.688056 9.33269 0.704781C9.26555 0.727967 9.1984 0.750977 9.13152 0.775777C9.08122 0.794424 9.03118 0.81449 8.98103 0.834057C8.9163 0.859314 8.85157 0.884535 8.7871 0.911324C8.73615 0.932494 8.68544 0.954904 8.63467 0.977031C8.57144 1.00459 8.50825 1.03228 8.44531 1.06133C8.39408 1.08498 8.34309 1.10966 8.29207 1.1343C8.23008 1.16423 8.16817 1.19447 8.1065 1.22587C8.05533 1.25192 8.00437 1.27881 7.95343 1.30587C7.8923 1.33835 7.83133 1.37149 7.77053 1.40527C7.71979 1.43359 7.6692 1.46246 7.61876 1.49189C7.58823 1.50964 7.55741 1.52616 7.52697 1.54428C7.48204 1.57104 7.4374 1.5989 7.39267 1.62647C7.37618 1.63664 7.35962 1.6465 7.34316 1.65678C7.24508 1.71802 7.14757 1.78132 7.05064 1.84668C7.02943 1.86092 7.00832 1.87543 6.98718 1.88987C6.88796 1.95763 6.78913 2.02674 6.69116 2.09869C2.91681 4.87258 1.21396 9.95045 2.08425 14.6941C2.31721 15.959 2.56009 15.9863 2.13256 17.2368L0.185493 20.1972C-0.194859 20.7758 0.0384148 21.4934 0.623873 21.4934H3.14035C2.55489 21.4934 2.32162 20.7758 2.70197 20.1972L4.64903 17.2368C5.07657 15.9863 4.83368 15.959 4.60072 14.6941C3.73043 9.95045 5.43329 4.87258 9.20764 2.09869C9.3056 2.02674 9.40443 1.95763 9.50365 1.88987C9.5248 1.87543 9.54592 1.86093 9.56711 1.84668Z" fill="#858585"></path>
<path fill-rule="evenodd" clip-rule="evenodd" d="M23.6995 5.68254C25.0522 8.00809 25.6405 10.7883 25.3635 13.5464C25.0866 16.3046 23.9617 18.8689 22.1817 20.7998C20.4016 22.7308 18.0774 23.908 15.6073 24.1297C13.1373 24.3515 10.6753 23.6039 8.64344 22.0151C7.53114 21.1455 7.78599 20.8328 6.36929 20.7539L3.06352 21.5079C2.3388 21.673 2.00816 20.8786 2.42805 20.2448L4.38918 17.2844C4.81597 16.0372 4.56852 16.0127 4.32419 14.7563C3.79306 12.0236 4.13388 9.16875 5.28736 6.68834C6.44084 4.20793 8.33402 2.25884 10.6377 1.18001C12.9413 0.101186 15.5097 -0.0391158 17.8961 0.783504C20.2825 1.60612 22.336 3.33962 23.6995 5.68254V5.68254Z" fill="#E42125"></path>
<path fill-rule="evenodd" clip-rule="evenodd" d="M25.1852 0.260087C26.9321 0.748171 28.4731 1.90173 29.5439 3.523C30.6147 5.14427 31.1486 7.13227 31.0541 9.14618C30.9597 11.1601 30.2427 13.0745 29.0261 14.5611C27.8096 16.0478 26.1692 17.0141 24.3862 17.2945C23.4103 17.448 23.4078 17.1402 22.619 17.8833L21.1927 20.1163C20.88 20.6058 20.3534 20.3663 20.2968 19.7963L20.0329 17.1341C19.7092 16.2341 19.5667 16.358 18.8818 15.8248C17.3922 14.6648 16.3128 12.9567 15.8311 10.9976C15.3495 9.03846 15.4961 6.95221 16.2455 5.10164C16.995 3.25108 18.2998 1.75328 19.9331 0.86872C21.5664 -0.0158416 23.4248 -0.231203 25.1852 0.260087V0.260087Z" fill="#2E90D1"></path>
<path fill-rule="evenodd" clip-rule="evenodd" d="M10.1377 9.97314C12.0283 8.25546 14.3934 7.32791 16.8277 7.34949C19.2619 7.37107 21.6137 8.34045 23.4797 10.0914C25.3458 11.8424 26.6099 14.266 27.0555 16.9466C27.501 19.6272 27.1001 22.3979 25.9216 24.7837C25.2765 26.0897 24.9777 25.8427 25.0536 27.4013L26.0487 30.9422C26.2667 31.7184 25.6075 32.1611 25.0118 31.7666L22.2292 29.9225C21.0977 29.5827 21.1016 29.8559 20.0306 30.2514C17.701 31.1117 15.1759 31.0301 12.8944 30.0209C10.613 29.0117 8.71947 27.1388 7.54325 24.7278C6.36703 22.3168 5.98249 19.5202 6.4565 16.8245C6.93051 14.1288 8.23309 11.7045 10.1377 9.97314V9.97314Z" fill="#78258D"></path>
<path d="M24.4286 14.4896L23.6768 14.9949H18.4893L19.4666 14.4896H24.4286Z" fill="#808080"></path>
<path d="M19.4848 14.6354L18.398 15.2471C18.3862 15.2451 18.3742 15.2469 18.3633 15.2523L19.4501 14.6406C19.461 14.6353 19.473 14.6335 19.4848 14.6354Z" fill="#858585"></path>
<path d="M15.6552 21.7847L14.5684 22.3963C15.3192 21.6717 16.0048 20.8665 16.6154 19.9921L17.7022 19.3805C17.0916 20.2548 16.406 21.0601 15.6552 21.7847" fill="#858585"></path>
<path d="M21.7983 26.1574L20.7114 26.769C20.5588 26.8622 20.3886 26.9131 20.2148 26.9176C19.7562 26.9176 19.2811 26.5173 18.348 25.7264C17.208 24.7628 14.6254 22.5381 14.5684 22.3964L15.6552 21.7848C15.7122 21.9265 18.2949 24.1512 19.4348 25.1147C20.3679 25.9057 20.843 26.306 21.3017 26.306C21.4754 26.3015 21.6457 26.2505 21.7983 26.1574" fill="#858585"></path>
<path d="M17.7023 19.3805C18.1191 19.6466 21.9359 22.9088 23.1558 23.9133C23.6195 24.2943 23.6469 24.5588 23.1888 24.9855C22.242 25.8695 21.7808 26.3059 21.3018 26.3059C20.8431 26.3059 20.368 25.9055 19.4349 25.1146C18.2949 24.1511 15.7123 21.9264 15.6553 21.7847C16.4061 21.0601 17.0917 20.2548 17.7023 19.3805V19.3805Z" fill="white"></path>
<path d="M8.39444 22.5845L7.30762 23.1961C7.48082 23.056 8.4147 22.2987 8.95848 21.9287C11.2113 20.3983 13.2427 18.6098 14.5805 16.0072C14.6437 15.8844 14.7054 15.7584 14.7671 15.6309C14.9007 15.323 15.0168 15.0059 15.1146 14.6815C15.3723 13.8793 15.5703 13.0546 15.7065 12.2159L16.759 11.2896C16.7332 11.5304 16.7948 11.2608 16.6087 12.5527C16.5485 12.9707 16.3348 13.6731 16.2014 14.0699C16.0833 14.4367 15.9712 15.2677 15.7065 15.6685C14.1119 18.0828 12.2981 19.7867 10.0453 21.317C9.50152 21.687 8.56764 22.4443 8.39444 22.5845" fill="#858585"></path>
<path d="M9.94628 25.4409L8.85945 26.0525L7.29883 23.2547L8.38566 22.6431L9.94628 25.4409Z" fill="#808080"></path>
<path d="M24.2775 11.2899L24.4278 14.4899H19.4658C19.4334 14.4863 19.1758 15.3423 18.9855 15.9138C18.5584 17.1923 18.1795 17.8363 17.4633 18.91C16.4316 20.4546 15.1233 21.8007 13.6001 22.991C12.7533 23.6538 10.8744 24.8551 10.1958 25.2818C10.0404 25.3826 9.95072 25.4379 9.946 25.4408L8.3854 22.643C8.37988 22.6339 8.37777 22.6227 8.37949 22.6118C8.38122 22.6009 8.38666 22.5912 8.39466 22.5848C8.56787 22.4447 9.50175 21.6874 10.0455 21.3174C12.2983 19.787 14.3297 17.9984 15.6676 15.3959C15.7307 15.2731 15.7904 15.1459 15.8541 15.0196C16.1028 14.5263 16.3456 13.5017 16.4816 12.7442C16.7119 11.4613 16.7334 11.5307 16.7593 11.2899C16.7623 11.2683 24.2775 11.2899 24.2775 11.2899Z" fill="white"></path>
<path d="M8.38628 22.643L7.29946 23.2546C7.29395 23.2455 7.29183 23.2343 7.29356 23.2234C7.29529 23.2125 7.30073 23.2028 7.30873 23.1964L8.39555 22.5847C8.38755 22.5912 8.38211 22.6009 8.38038 22.6117C8.37865 22.6226 8.38077 22.6338 8.38628 22.643" fill="#858585"></path>
<path d="M22.2158 5.40234L21.129 6.01396H20.2793L21.3661 5.40234H22.2158Z" fill="#808080"></path>
<path d="M19.8708 9.34092L18.784 9.95256C18.3618 10.1884 17.896 10.31 17.4242 10.3076C17.4172 10.3076 17.4099 10.3076 17.4029 10.3075C15.6962 10.2949 14.3814 8.81337 14.376 6.89726C14.3755 6.27153 14.5305 5.65798 14.8236 5.12532C15.1168 4.59266 15.5365 4.16191 16.0358 3.8813L17.1226 3.26965C16.6233 3.55026 16.2036 3.98101 15.9104 4.51367C15.6173 5.04634 15.4623 5.65988 15.4628 6.28562C15.4682 8.20172 16.783 9.68327 18.4897 9.69587C18.4967 9.69593 18.504 9.69595 18.511 9.69595C18.9828 9.69835 19.4486 9.57675 19.8708 9.34092" fill="#858585"></path>
<path d="M22.1937 2.91785L22.2153 5.40233H21.3655C21.4411 5.69838 21.4808 6.00445 21.4836 6.31235C21.5016 8.21423 20.1974 9.69591 18.5121 9.69591C18.505 9.69591 18.4978 9.69589 18.4907 9.69583C16.7841 9.68323 15.4693 8.20168 15.4639 6.28558C15.4627 5.40217 15.7719 4.55372 16.3246 3.92357C16.8774 3.29341 17.6293 2.93215 18.4178 2.91785C18.5085 2.91785 18.5993 2.921 18.6887 2.92886L22.1937 2.91785Z" fill="white"></path>
</svg><style>@media (prefers-color-scheme: light) { :root { filter: none; } }
@media (prefers-color-scheme: dark) { :root { filter: none; } }
</style></svg>