<?xml version="1.0" encoding="utf-8"?><svg xmlns="http://www.w3.org/2000/svg" xmlns:xlink="http://www.w3.org/1999/xlink"><symbol viewBox="0 0 24 24" id="arrow-down" xmlns="http://www.w3.org/2000/svg"><path d="M6 9l6 6 6-6" stroke-width="2" stroke-linecap="round" stroke-linejoin="round"/></symbol><symbol viewBox="0 0 16 16" id="arrow-right" xmlns="http://www.w3.org/2000/svg"><path d="M3.333 8h9.333M8 3.333L12.667 8 8 12.667" stroke-width="2" stroke-linecap="round" stroke-linejoin="round"/></symbol><symbol viewBox="0 0 24 24" id="facebook" xmlns="http://www.w3.org/2000/svg"><path d="M15.12 5.32H17V2.14A26.113 26.113 0 0014.26 2c-2.72 0-4.58 1.66-4.58 4.7v2.62H6.61v3.56h3.07V22h3.68v-9.12h3.06l.46-3.56h-3.52V7.05c0-1.05.28-1.73 1.76-1.73z"/></symbol><symbol viewBox="0 0 19 22" id="play-promo" xmlns="http://www.w3.org/2000/svg"><path d="M17.286 9.304a2 2 0 010 3.392L3.06 21.587C1.728 22.42 0 21.462 0 19.892V2.108C0 .538 1.728-.42 3.06.412l14.226 8.892z"/></symbol><symbol viewBox="0 0 24 24" id="twitter" xmlns="http://www.w3.org/2000/svg"><path d="M22 5.8a8.49 8.49 0 01-2.36.64 4.13 4.13 0 001.81-2.27 8.21 8.21 0 01-2.61 1 4.1 4.1 0 00-7 3.74 11.64 11.64 0 01-8.45-4.29 4.16 4.16 0 00-.55 2.07 4.09 4.09 0 001.82 3.41 4.05 4.05 0 01-1.86-.51v.05a4.1 4.1 0 003.3 4 3.929 3.929 0 01-1.1.17 4.896 4.896 0 01-.77-.07 4.11 4.11 0 003.83 2.84A8.22 8.22 0 012 18.28a11.57 11.57 0 006.29 1.85A11.59 11.59 0 0020 8.45v-.53a8.43 8.43 0 002-2.12z"/></symbol><symbol viewBox="0 0 24 24" id="vk" xmlns="http://www.w3.org/2000/svg"><g clip-path="url(#fclip0_9870_8522)"><path d="M21.363 14.758s1.94 1.916 2.42 2.803c.01.013.016.027.021.042.196.327.244.584.148.774-.162.313-.71.47-.896.483h-3.43c-.239 0-.736-.062-1.34-.48-.462-.322-.922-.854-1.367-1.374-.665-.771-1.24-1.44-1.822-1.44a.662.662 0 00-.216.035c-.44.14-1 .767-1 2.439 0 .523-.412.82-.701.82h-1.571c-.535 0-3.322-.187-5.792-2.792C2.789 12.878.07 6.48.043 6.424c-.169-.414.186-.64.57-.64h3.464c.464 0 .615.28.72.533.123.289.577 1.446 1.32 2.745 1.206 2.115 1.946 2.975 2.538 2.975.11 0 .22-.028.316-.084.773-.425.63-3.185.593-3.753 0-.11-.001-1.233-.397-1.775-.283-.389-.766-.54-1.057-.595.078-.113.243-.286.456-.388.529-.264 1.485-.302 2.434-.302h.527c1.03.014 1.296.08 1.67.175.754.18.769.668.703 2.331-.02.476-.04 1.01-.04 1.64 0 .135-.006.285-.006.438-.023.853-.053 1.814.55 2.209a.491.491 0 00.26.074c.209 0 .834 0 2.53-2.91.744-1.285 1.32-2.8 1.36-2.915.033-.063.134-.242.256-.314a.575.575 0 01.283-.067h4.074c.444 0 .745.067.804.235.099.272-.019 1.104-1.879 3.62-.313.418-.588.78-.83 1.097-1.685 2.213-1.685 2.325.1 4.005z"/></g><defs><clipPath id="fclip0_9870_8522"><path d="M0 0h24v24H0z"/></clipPath></defs></symbol><symbol viewBox="0 0 24 24" id="youtube" xmlns="http://www.w3.org/2000/svg"><path d="M23 9.71a8.499 8.499 0 00-.91-4.13 2.92 2.92 0 00-1.72-1A78.362 78.362 0 0012 4.27a78.45 78.45 0 00-8.34.3 2.87 2.87 0 00-1.46.74c-.9.83-1 2.25-1.1 3.45a48.29 48.29 0 000 6.48 9.55 9.55 0 00.3 2c.12.506.365.973.71 1.36a2.86 2.86 0 001.49.78c2.156.267 4.328.377 6.5.33 3.5.05 6.57 0 10.2-.28a2.88 2.88 0 001.53-.78c.28-.28.49-.622.61-1 .358-1.097.533-2.245.52-3.4.04-.56.04-3.94.04-4.54zM9.74 14.85V8.66l5.92 3.11c-1.66.92-3.85 1.96-5.92 3.08z"/></symbol></svg>