<svg width="120" height="40" viewBox="0 0 120 40" fill="none" xmlns="http://www.w3.org/2000/svg">
<path fill-rule="evenodd" clip-rule="evenodd" d="M47.5192 26.3285V28.515H46.4935V30.1247H47.5192V33.0622C47.5192 35.4901 47.949 35.5437 51.7603 35.5437V33.545H51.3029C50.4991 33.545 50.4021 33.3171 50.4021 32.6732V30.1247H51.788V28.515H50.4021V26.3285H47.5192ZM56.9162 30.1917C57.6508 30.1917 58.1359 30.9295 58.1359 31.9622C58.1359 33.2902 57.6647 33.8671 56.8885 33.8671C56.1539 33.8671 55.6412 33.2902 55.6412 31.9622C55.6412 31.1709 55.9321 30.1917 56.9162 30.1917ZM52.7583 32.1097C52.7583 34.511 54.56 35.745 56.8885 35.745C59.2169 35.745 61.0186 34.5376 61.0186 31.9622C61.0186 29.7759 59.4385 28.3138 56.8746 28.3138C54.4215 28.3138 52.7583 29.6686 52.7583 32.1097ZM70.6233 30.3125C71.5381 30.3125 71.843 31.0501 71.843 31.8282C71.843 32.5793 71.5105 33.2767 70.6233 33.2767C69.8334 33.2767 69.487 32.6062 69.487 31.9087C69.487 30.9965 69.7503 30.3125 70.6233 30.3125ZM66.9784 35.9059C67.1168 36.9386 68.1978 37.9313 70.762 37.9313C74.3378 37.9313 74.5872 36.2815 74.5872 34.1755V28.515H72.051V29.4405C71.8008 29.0985 71.4709 28.8183 71.0881 28.6226C70.7052 28.4268 70.2802 28.321 69.8473 28.3138C67.4633 28.3138 66.6041 30.1514 66.6041 31.8818C66.6041 33.6793 67.7544 35.2084 69.7642 35.2084C70.8035 35.2084 71.4273 34.8463 71.843 34.4438V35.0206C71.843 36.0267 71.5105 36.3889 70.6789 36.3889C70.1245 36.3889 69.9165 36.1473 69.8749 35.9059H66.9784ZM79.9926 30.1917C80.7271 30.1917 81.2123 30.9295 81.2123 31.9622C81.2123 33.2902 80.741 33.8671 79.9648 33.8671C79.2302 33.8671 78.7175 33.2902 78.7175 31.9622C78.7175 31.1709 79.0084 30.1917 79.9926 30.1917ZM75.8347 32.1097C75.8347 34.511 77.6363 35.745 79.9648 35.745C82.2933 35.745 84.0949 34.5376 84.0949 31.9622C84.0949 29.7759 82.5149 28.3138 79.9509 28.3138C77.4979 28.3138 75.8347 29.6686 75.8347 32.1097Z" fill="#040404"/>
<path d="M36.9781 40H33.3376C33.0944 39.9958 32.8579 39.9218 32.6581 39.7875H36.2986C36.4984 39.9218 36.7349 39.9958 36.9781 40Z" fill="#858585"/>
<path d="M36.2985 39.7874H32.658L28.8293 37.3101H32.4697L36.2985 39.7874Z" fill="#808080"/>
<path d="M32.4698 37.3101H28.8293C28.2741 37.1364 27.9128 37.0658 27.611 37.0658H31.2515C31.5533 37.0658 31.9146 37.1364 32.4698 37.3101Z" fill="#858585"/>
<path d="M29.3002 1.78298C29.3796 1.73145 29.4588 1.67961 29.5396 1.63014C29.5873 1.60091 29.6361 1.57353 29.6842 1.54502C29.7574 1.50166 29.8303 1.45774 29.9045 1.41607C29.9573 1.38645 30.0111 1.35875 30.0643 1.32999C30.1356 1.29149 30.2066 1.25233 30.2787 1.21537C30.3125 1.19808 30.3469 1.18192 30.3809 1.16498C30.4669 1.12201 30.5533 1.07956 30.6405 1.03882C30.6856 1.01779 30.7311 0.997747 30.7764 0.977316C30.854 0.942346 30.9318 0.90789 31.0102 0.874693C31.059 0.854062 31.108 0.834006 31.1571 0.814062C31.234 0.782819 31.3112 0.752433 31.3888 0.722904C31.4384 0.704048 31.488 0.685294 31.5378 0.667144C31.6181 0.637911 31.6989 0.610003 31.7799 0.582618C31.8271 0.566678 31.8741 0.550327 31.9214 0.535017C32.0144 0.504969 32.1081 0.476764 32.202 0.449151C32.2377 0.438666 32.273 0.427313 32.3088 0.417188C32.4387 0.380424 32.5693 0.345968 32.7007 0.31382C32.7271 0.307377 32.7539 0.301986 32.7804 0.295735C32.8881 0.270318 32.996 0.245879 33.1047 0.223675C33.1309 0.218323 33.1572 0.213408 33.1834 0.208236C33.2939 0.186495 33.4047 0.166403 33.516 0.147959C33.537 0.144503 33.5578 0.14066 33.5788 0.13732C33.704 0.117371 33.8299 0.0996708 33.9562 0.0842196C33.9854 0.0806091 34.0146 0.0773513 34.0437 0.0739723C34.1611 0.0603829 34.2788 0.0485693 34.3968 0.0385314C34.4105 0.0373946 34.4241 0.0358841 34.4378 0.0347988C34.566 0.0246157 34.6948 0.0172462 34.8238 0.0115536C34.8545 0.0102042 34.8852 0.00900486 34.9159 0.00795574C35.0467 0.00327892 35.1778 6.10352e-05 35.3092 6.10352e-05H31.6687C31.5373 6.10352e-05 31.4062 0.00327997 31.2754 0.00795574C31.2447 0.00905468 31.214 0.0101978 31.1833 0.0115536C31.0543 0.0172525 30.9255 0.0246062 30.7973 0.0347988C30.7836 0.0358904 30.77 0.0373946 30.7563 0.0385314C30.6382 0.0483608 30.5206 0.0603818 30.4033 0.0739639C30.3741 0.0773428 30.3449 0.080607 30.3157 0.0842175C30.1894 0.0998666 30.0636 0.117567 29.9383 0.137318C29.9173 0.140658 29.8965 0.1445 29.8755 0.147957C29.7642 0.166343 29.6533 0.186435 29.5429 0.208234C29.5167 0.213405 29.4904 0.218315 29.4642 0.223673C29.4476 0.227065 29.4309 0.229975 29.4143 0.233444C29.3224 0.25268 29.2311 0.274197 29.1399 0.295732C29.1134 0.301984 29.0866 0.307375 29.0602 0.313818C28.9288 0.345865 28.7982 0.380321 28.6683 0.417186C28.6325 0.427311 28.5972 0.438659 28.5616 0.449149C28.4677 0.476762 28.374 0.504966 28.281 0.535015C28.2335 0.550331 28.1866 0.566683 28.1394 0.582628C28.0584 0.610011 27.9777 0.637907 27.8974 0.667127C27.8475 0.685296 27.7979 0.70405 27.7483 0.722926C27.6707 0.752448 27.5935 0.782819 27.5166 0.814041C27.4675 0.834009 27.4185 0.854067 27.3697 0.874729C27.2913 0.9079 27.2136 0.942324 27.136 0.977268C27.0906 0.997717 27.0451 1.01778 27 1.03883C26.9127 1.07962 26.8262 1.12211 26.74 1.16514C26.7062 1.18203 26.672 1.1981 26.6383 1.21534C26.632 1.21859 26.6255 1.22155 26.6191 1.22481C26.5532 1.25871 26.4887 1.29499 26.4235 1.33019C26.3704 1.35887 26.3167 1.38653 26.264 1.41607C26.1898 1.45774 26.1169 1.50168 26.0437 1.54503C25.9956 1.57354 25.9468 1.60091 25.8991 1.63015C25.8183 1.67962 25.7391 1.73146 25.6597 1.78299C25.6208 1.80823 25.5811 1.83231 25.5425 1.85805C25.4252 1.9363 25.3093 2.01676 25.1949 2.09943H28.8354C28.9497 2.01672 29.0656 1.93626 29.183 1.85805C29.2216 1.8323 29.2613 1.80823 29.3002 1.78298Z" fill="#8F8F8F"/>
<path d="M25.3383 38.1288H21.6978C19.3627 38.1253 17.0619 37.5839 14.9858 36.5493C12.9096 35.5147 11.1178 34.0168 9.75829 32.1792C8.40548 30.3715 7.49292 28.2909 7.08899 26.0933H10.7295C11.1334 28.2909 12.046 30.3715 13.3988 32.1792C14.7582 34.0168 16.5501 35.5147 18.6263 36.5493C20.7024 37.5839 23.0032 38.1253 25.3383 38.1288Z" fill="#858585"/>
<path d="M10.7296 26.0933H7.08906C6.691 25.9929 6.28242 25.9367 5.87122 25.9257H9.51171C9.92291 25.9367 10.3315 25.9929 10.7296 26.0933Z" fill="#858585"/>
<path d="M35.3092 6.10352e-05C36.2074 0.000535992 37.102 0.109698 37.9721 0.325007C43.8527 1.77543 47.4315 7.66898 45.9657 13.4886C45.579 15.0557 44.8344 16.5191 43.7866 17.7711C42.7388 19.0231 41.4145 20.032 39.9109 20.7237C40.5906 24.3024 39.904 27.9983 37.9788 31.1238C36.9927 32.7145 36.5848 32.3876 36.604 34.3382L37.8113 38.8221C38.0029 39.5351 37.5529 40 36.9781 40C36.7349 39.9958 36.4984 39.9218 36.2986 39.7875L32.4698 37.3101C31.9146 37.1364 31.5532 37.0658 31.2514 37.0658C30.694 37.0658 30.3398 37.3067 29.3429 37.5839C28.0409 37.9457 26.693 38.1291 25.3384 38.1288C23.0032 38.1253 20.7025 37.5839 18.6263 36.5493C16.5502 35.5148 14.7583 34.0168 13.3989 32.1792C12.046 30.3715 11.1335 28.2909 10.7295 26.0933C10.3315 25.9929 9.92291 25.9367 9.5117 25.9257L4.80117 26.8408C4.71621 26.8576 4.62975 26.8663 4.54303 26.8666C3.69608 26.8666 3.35861 25.9697 3.90885 25.2464L6.72559 21.546C7.34409 19.9828 6.99271 19.9487 6.6557 18.3676C5.39669 12.438 7.86014 6.09068 13.3203 2.62333C15.607 1.16467 18.2648 0.344073 21.0018 0.251652C23.7389 0.159231 26.4493 0.798559 28.8354 2.09943C30.7025 0.741382 32.9737 0.00486732 35.3092 6.10352e-05Z" fill="#E8E8E8"/>
<path d="M13.8404 2.30829C13.9806 2.22679 14.1217 2.14767 14.2635 2.07092C14.2874 2.05807 14.3113 2.04574 14.3352 2.03304C14.4437 1.97524 14.5529 1.91974 14.6622 1.8648C14.7353 1.82813 14.8084 1.79204 14.8818 1.75653C14.9697 1.71412 15.0579 1.6727 15.1464 1.63229C15.2201 1.59847 15.2938 1.56484 15.3678 1.53228C15.457 1.49304 15.5466 1.45523 15.6363 1.41782C15.7101 1.38703 15.7839 1.35616 15.858 1.32661C15.949 1.29031 16.0405 1.25568 16.1319 1.22123C16.2054 1.19357 16.2787 1.16556 16.3524 1.1391C16.4457 1.10561 16.5394 1.07406 16.6331 1.04248C16.7056 1.01804 16.7779 0.992981 16.8506 0.969685C16.9473 0.938712 17.0444 0.909968 17.1414 0.881005C17.2116 0.860047 17.2817 0.838184 17.3521 0.81828C17.4544 0.789343 17.5572 0.762932 17.6598 0.736204C17.7254 0.719134 17.7909 0.700875 17.8566 0.684703C17.9736 0.655914 18.091 0.629978 18.2084 0.604042C18.26 0.592637 18.3114 0.57984 18.3631 0.568982C18.5186 0.536325 18.6744 0.506675 18.8304 0.478964C18.8744 0.471145 18.9186 0.464085 18.9626 0.456658C19.0803 0.436832 19.198 0.418385 19.3159 0.401315C19.3631 0.394506 19.4102 0.38756 19.4574 0.381193C19.6038 0.361437 19.7503 0.343404 19.8969 0.32793C19.9082 0.326735 19.9196 0.325161 19.9309 0.323985C20.0884 0.307724 20.2459 0.294605 20.4035 0.283248C20.4489 0.279978 20.4943 0.277402 20.5397 0.274537C20.6577 0.26709 20.7758 0.261008 20.8938 0.25629C20.9402 0.254446 20.9865 0.25239 21.0328 0.250964C21.1906 0.246101 21.3484 0.242859 21.5061 0.242859H17.8656C17.708 0.242853 17.5501 0.246098 17.3923 0.250964C17.346 0.25239 17.2997 0.254446 17.2533 0.25629C17.1353 0.261 17.0172 0.267082 16.8992 0.274537C16.8538 0.277402 16.8084 0.279985 16.763 0.283248C16.6054 0.294607 16.4477 0.307727 16.2902 0.324001C16.2793 0.325125 16.2684 0.326647 16.2575 0.327798C16.1105 0.343301 15.9636 0.361386 15.8169 0.381193C15.7698 0.387548 15.7227 0.394473 15.6756 0.401277C15.5575 0.418342 15.4395 0.436823 15.3216 0.456722C15.2778 0.464111 15.234 0.471133 15.1902 0.478907C15.0381 0.50591 14.8862 0.534539 14.7347 0.566245C14.7306 0.5671 14.7266 0.568153 14.7225 0.569007C14.6715 0.579711 14.6208 0.592335 14.5699 0.603572C14.4518 0.629656 14.3337 0.655773 14.2159 0.684742C14.1507 0.700784 14.0858 0.718916 14.0207 0.735844C13.9175 0.762686 13.8143 0.789235 13.7114 0.818319C13.6412 0.838184 13.5713 0.860009 13.5012 0.880915C13.4041 0.909897 13.307 0.93866 13.2102 0.96966C13.1374 0.992968 13.065 1.01805 12.9925 1.04251C12.8989 1.07408 12.8052 1.10561 12.7119 1.13909C12.6382 1.16556 12.5649 1.19357 12.4914 1.22123C12.4 1.25568 12.3085 1.29029 12.2175 1.32661C12.1434 1.35616 12.0696 1.38702 11.9958 1.41781C11.9061 1.45522 11.8166 1.49302 11.7274 1.53227C11.6533 1.56483 11.5796 1.59845 11.5059 1.63228C11.4175 1.67288 11.3293 1.71429 11.2413 1.75653C11.1679 1.79193 11.0947 1.82802 11.0218 1.8648C10.9776 1.88698 10.933 1.90764 10.889 1.93028C10.824 1.96373 10.7594 1.99857 10.6947 2.03303C10.6708 2.04574 10.6469 2.05806 10.6231 2.07091C10.4812 2.14747 10.3401 2.22659 10.1999 2.30828C10.1692 2.32609 10.1387 2.34422 10.1081 2.36227C9.96454 2.44698 9.82156 2.53336 9.67984 2.6233C4.21964 6.09066 1.75618 12.438 3.0152 18.3676C3.35221 19.9487 3.70359 19.9828 3.08509 21.546L0.268345 25.2464C-0.281894 25.9697 0.0555732 26.8666 0.902532 26.8666H4.54301C3.69606 26.8666 3.35859 25.9697 3.90883 25.2464L6.72557 21.546C7.34408 19.9828 6.9927 19.9487 6.65568 18.3676C5.39667 12.438 7.86013 6.09066 13.3203 2.6233C13.462 2.53336 13.605 2.44698 13.7486 2.36227C13.7792 2.34423 13.8097 2.3261 13.8404 2.30829Z" fill="#858585"/>
<path fill-rule="evenodd" clip-rule="evenodd" d="M34.285 7.10326C36.2418 10.0102 37.0928 13.4854 36.6922 16.9331C36.2915 20.3808 34.6642 23.5862 32.0891 25.9999C29.514 28.4135 26.1516 29.8851 22.5783 30.1622C19.005 30.4394 15.4433 29.5049 12.5039 27.5189C10.8948 26.4319 11.2635 26.041 9.21398 25.9424L4.43165 26.8849C3.38323 27.0913 2.9049 26.0984 3.51234 25.3061L6.34943 21.6056C6.96685 20.0465 6.60887 20.0159 6.25541 18.4454C5.48705 15.0295 5.98009 11.461 7.64879 8.36051C9.31749 5.26 12.0563 2.82363 15.3889 1.4751C18.7214 0.126575 22.437 -0.0488029 25.8893 0.979471C29.3417 2.00775 32.3125 4.17462 34.285 7.10326V7.10326Z" fill="#E42125"/>
<path fill-rule="evenodd" clip-rule="evenodd" d="M36.4332 0.325139C38.9604 0.935244 41.1896 2.37719 42.7387 4.40378C44.2878 6.43036 45.0602 8.91536 44.9236 11.4327C44.7869 13.9501 43.7497 16.3431 41.9897 18.2014C40.2297 20.0598 37.8567 21.2677 35.2773 21.6181C33.8655 21.81 33.8619 21.4253 32.7207 22.3542L30.6575 25.1454C30.2051 25.7572 29.4432 25.4579 29.3613 24.7453L28.9796 21.4177C28.5113 20.2927 28.3051 20.4475 27.3143 19.781C25.1594 18.331 23.5978 16.1959 22.901 13.747C22.2042 11.2981 22.4164 8.69028 23.5006 6.37708C24.5847 4.06388 26.4724 2.19163 28.8352 1.08593C31.198 -0.0197715 33.8865 -0.288974 36.4332 0.325139Z" fill="#2E90D1"/>
<path fill-rule="evenodd" clip-rule="evenodd" d="M14.6654 12.4667C17.4004 10.3196 20.822 9.16019 24.3435 9.18717C27.8651 9.21415 31.2672 10.4259 33.9668 12.6146C36.6664 14.8033 38.4951 17.8328 39.1397 21.1835C39.7842 24.5343 39.2043 27.9977 37.4994 30.98C36.5661 32.6125 36.1339 32.3037 36.2437 34.2519L37.6832 38.678C37.9986 39.6483 37.045 40.2017 36.1832 39.7085L32.1577 37.4034C30.5209 36.9786 30.5265 37.3202 28.977 37.8146C25.6069 38.8899 21.954 38.7879 18.6535 37.5264C15.353 36.2649 12.6137 33.9237 10.9121 30.91C9.21054 27.8962 8.65424 24.4006 9.33997 21.031C10.0257 17.6613 11.9101 14.6309 14.6654 12.4667Z" fill="#78258D"/>
<path d="M35.3394 18.1124L34.2518 18.7439H26.7472L28.1611 18.1124H35.3394Z" fill="#808080"/>
<path d="M28.1898 18.2943L26.6175 19.0588C26.6004 19.0564 26.583 19.0587 26.5673 19.0654L28.1395 18.3008C28.1553 18.2941 28.1727 18.2918 28.1898 18.2943Z" fill="#858585"/>
<path d="M22.6477 27.2312L21.0754 27.9958C22.1616 27.09 23.1534 26.0835 24.0368 24.9906L25.6091 24.226C24.7257 25.3189 23.7338 26.3255 22.6477 27.2312Z" fill="#858585"/>
<path d="M31.5347 32.6969L29.9624 33.4615C29.7416 33.5779 29.4953 33.6416 29.244 33.6473C28.5804 33.6473 27.8932 33.1468 26.5433 32.1582C24.8941 30.9537 21.1579 28.1729 21.0754 27.9958L22.6477 27.2312C22.7302 27.4083 26.4664 30.1892 28.1156 31.3936C29.4655 32.3823 30.1527 32.8827 30.8162 32.8827C31.0676 32.8771 31.3139 32.8134 31.5347 32.6969Z" fill="#858585"/>
<path d="M25.6091 24.226C26.212 24.5586 31.7336 28.6364 33.4984 29.892C34.1692 30.3683 34.2089 30.6989 33.5461 31.2323C32.1764 32.3372 31.5093 32.8827 30.8162 32.8827C30.1527 32.8827 29.4655 32.3823 28.1156 31.3937C26.4664 30.1892 22.7302 27.4084 22.6477 27.2312C23.7339 26.3255 24.7257 25.3189 25.6091 24.226Z" fill="white"/>
<path d="M12.1449 28.2308L10.5726 28.9953C10.8232 28.8202 12.1742 27.8735 12.9609 27.411C16.2199 25.4981 19.1587 23.2624 21.0941 20.0092C21.1854 19.8557 21.2747 19.6982 21.3639 19.5388C21.5572 19.1539 21.7251 18.7575 21.8667 18.3521C22.2395 17.3493 22.5259 16.3185 22.723 15.27L24.2456 14.1121C24.2083 14.4132 24.2973 14.0762 24.0281 15.6911C23.941 16.2136 23.6319 17.0916 23.439 17.5875C23.268 18.0461 23.1059 19.0848 22.723 19.5858C20.4161 22.6036 17.7921 24.7335 14.5331 26.6465C13.7465 27.109 12.3955 28.0556 12.1449 28.2308Z" fill="#858585"/>
<path d="M14.3892 31.8011L12.8169 32.5656L10.5592 29.0684L12.1315 28.3038L14.3892 31.8011Z" fill="#808080"/>
<path d="M35.1219 14.1123L35.3394 18.1123H28.1611C28.1141 18.1079 27.7416 19.1779 27.4662 19.8923C26.8484 21.4903 26.3002 22.2953 25.2641 23.6375C23.7715 25.5682 21.8789 27.2509 19.6754 28.7387C18.4503 29.5673 15.7322 31.0689 14.7504 31.6023C14.5257 31.7282 14.3959 31.7974 14.3891 31.801L12.1315 28.3038C12.1235 28.2924 12.1204 28.2784 12.1229 28.2648C12.1254 28.2512 12.1333 28.2391 12.1449 28.231C12.3954 28.0558 13.7464 27.1092 14.5331 26.6467C17.7921 24.7338 20.7309 22.498 22.6663 19.2448C22.7576 19.0913 22.8441 18.9323 22.9361 18.7745C23.2959 18.1579 23.6472 16.8771 23.8439 15.9303C24.1771 14.3266 24.2082 14.4134 24.2456 14.1123C24.2499 14.0853 35.1219 14.1123 35.1219 14.1123Z" fill="white"/>
<path d="M12.1315 28.3038L10.5592 29.0683C10.5512 29.0569 10.5482 29.0429 10.5507 29.0293C10.5532 29.0157 10.561 29.0036 10.5726 28.9955L12.1449 28.231C12.1333 28.239 12.1254 28.2511 12.1229 28.2647C12.1204 28.2783 12.1235 28.2923 12.1315 28.3038Z" fill="#858585"/>
<path d="M32.1387 6.75305L30.5664 7.51758H29.3372L30.9094 6.75305H32.1387Z" fill="#808080"/>
<path d="M28.7486 11.6762L27.1764 12.4407C26.5655 12.7355 25.8917 12.8875 25.2092 12.8845C25.199 12.8845 25.1885 12.8845 25.1783 12.8844C22.7093 12.8687 20.8073 11.0167 20.7994 8.62161C20.7987 7.83944 21.0229 7.0725 21.447 6.40668C21.8711 5.74085 22.4783 5.20241 23.2007 4.85165L24.7729 4.0871C24.0506 4.43786 23.4433 4.9763 23.0193 5.64212C22.5952 6.30795 22.371 7.07488 22.3717 7.85705C22.3796 10.2522 24.2816 12.1041 26.7506 12.1199C26.7607 12.1199 26.7713 12.12 26.7814 12.12C27.464 12.123 28.1378 11.971 28.7486 11.6762Z" fill="#858585"/>
<path d="M32.1075 3.6474L32.1387 6.753H30.9094C31.0187 7.12307 31.0762 7.50565 31.0803 7.89052C31.1063 10.2679 29.2195 12.12 26.7815 12.12C26.7713 12.12 26.7608 12.1199 26.7506 12.1199C24.2816 12.1041 22.3796 10.2522 22.3717 7.85706C22.37 6.75281 22.8173 5.69225 23.6169 4.90455C24.4165 4.11685 25.5043 3.66528 26.6451 3.6474C26.7763 3.6474 26.9077 3.65134 27.0369 3.66117L32.1075 3.6474Z" fill="white"/>
<path d="M50.7029 13.5796V20.9559H55.1764V23.2009H47.4445V13.5796H50.7029Z" fill="#040404"/>
<path d="M59.2218 18.3502H56.4604C56.4604 17.5841 56.7733 17.0006 57.3992 16.5996C58.0251 16.1988 59.0284 15.9984 60.4092 15.9984C60.8965 15.9935 61.3835 16.0247 61.8659 16.0919C62.216 16.1365 62.5564 16.2358 62.8738 16.3858C63.1053 16.4986 63.3192 16.6425 63.509 16.8134C63.679 16.9803 63.8005 17.1878 63.861 17.4148C63.929 17.6376 63.9775 17.8656 64.0059 18.0963C64.0318 18.3628 64.0433 18.6304 64.0405 18.8981V22.172C64.0331 22.3478 64.0541 22.5236 64.1027 22.6932C64.1733 22.8443 64.2856 22.9737 64.4271 23.0673V23.2009H61.4585L61.3205 22.4526C60.6209 23.0852 59.7142 23.4014 58.6005 23.4013C57.8639 23.4013 57.2495 23.221 56.7572 22.8602C56.2647 22.4994 56.0184 21.976 56.0185 21.29C56.0003 20.8487 56.1339 20.414 56.3983 20.054C56.6364 19.7394 56.9691 19.5037 57.3509 19.3791C57.7571 19.2484 58.1724 19.1457 58.5936 19.0718C59.0044 18.9961 59.4193 18.9426 59.8362 18.9115C60.1639 18.8969 60.4863 18.8268 60.7889 18.7043C61.042 18.5931 61.1686 18.4394 61.1686 18.2433C61.1686 17.8603 60.8557 17.6688 60.2297 17.6687C59.613 17.6687 59.277 17.8959 59.2218 18.3502ZM61.1686 20.1007C60.8675 20.225 60.5524 20.3147 60.2297 20.3679C59.9053 20.4189 59.5909 20.5181 59.2977 20.662C59.1954 20.7199 59.1121 20.8045 59.0571 20.9061C59.0022 21.0078 58.978 21.1223 58.9871 21.2366C58.9862 21.3227 59.0087 21.4075 59.0523 21.4825C59.0959 21.5576 59.1591 21.6202 59.2356 21.6642C59.4353 21.7798 59.6659 21.8356 59.8984 21.8245C60.3768 21.8245 60.7082 21.682 60.8925 21.3969C61.0765 21.1119 61.1686 20.6798 61.1686 20.1007V20.1007Z" fill="#040404"/>
<path d="M68.1825 16.1988V17.2945C68.8453 16.4305 69.6598 15.9985 70.6263 15.9984C72.4949 15.9984 73.4293 17.0006 73.4293 19.005V23.2009H70.5573V19.4994C70.5573 18.6265 70.2214 18.1899 69.5494 18.1898C69.1259 18.1898 68.8337 18.3101 68.6727 18.5507C68.5115 18.7912 68.431 19.152 68.431 19.633V23.2009H65.5591V16.1988H68.1825Z" fill="#040404"/>
<path d="M75.0446 23.5618H77.9301C77.9854 23.8825 78.2524 24.0428 78.731 24.0427C79.1452 24.0427 79.442 23.9403 79.6214 23.7354C79.8012 23.5304 79.8909 23.1786 79.8906 22.6798V22.1052C79.3661 22.6129 78.6758 22.8668 77.8196 22.8669C76.8532 22.8669 76.087 22.5484 75.5208 21.9114C74.9547 21.2746 74.6717 20.4884 74.6716 19.5529C74.669 19.117 74.7294 18.683 74.8511 18.2634C74.9688 17.8621 75.1505 17.4811 75.3898 17.1341C75.6426 16.7753 75.9908 16.4891 76.3975 16.3057C76.8682 16.0928 77.3832 15.9876 77.9027 15.9984C78.3318 15.9975 78.7543 16.1009 79.1315 16.2989C79.515 16.4969 79.8457 16.7782 80.0978 17.1209V16.1988H82.6246V21.8379C82.6246 22.2478 82.6131 22.5863 82.59 22.8535C82.562 23.149 82.5089 23.4417 82.4314 23.7288C82.3654 24.0111 82.2357 24.2757 82.0516 24.5038C81.8597 24.7227 81.6366 24.9139 81.3889 25.0717C81.0674 25.2686 80.7081 25.4004 80.3327 25.4593C79.8313 25.5451 79.3228 25.5854 78.8137 25.5796C77.6263 25.5796 76.7196 25.3858 76.0936 24.9982C75.4678 24.6107 75.1181 24.1319 75.0446 23.5618ZM78.6758 17.9894C77.9209 17.9894 77.5435 18.5195 77.5436 19.5796C77.5318 19.9241 77.6333 20.2633 77.8335 20.5484C77.9281 20.6775 78.0549 20.7814 78.2022 20.8504C78.3495 20.9193 78.5124 20.951 78.6758 20.9426C79.0899 20.9426 79.396 20.8045 79.594 20.5284C79.8004 20.2233 79.9041 19.8638 79.8906 19.4994C79.9061 19.1189 79.8053 18.7424 79.6007 18.417C79.4075 18.132 79.0991 17.9895 78.6758 17.9894Z" fill="#040404"/>
<path d="M84.1432 16.1988H87.0152V19.9805C87.0152 20.4437 87.098 20.7711 87.2637 20.9627C87.4294 21.1543 87.6917 21.2501 88.0507 21.25C88.4462 21.25 88.727 21.1119 88.893 20.8357C89.0586 20.5597 89.1414 20.1365 89.1413 19.5663V16.1988H92.0133V23.2009H89.3485V22.172C88.9986 22.6443 88.6304 22.9672 88.244 23.1408C87.8575 23.3145 87.3558 23.4013 86.739 23.4013C85.9289 23.4013 85.2937 23.1564 84.8335 22.6664C84.3731 22.1765 84.143 21.4416 84.1432 20.4616V16.1988Z" fill="#040404"/>
<path d="M96.3901 18.3502H93.6286C93.6286 17.5841 93.9416 17.0006 94.5675 16.5996C95.1934 16.1988 96.1967 15.9984 97.5775 15.9984C98.0648 15.9935 98.5518 16.0247 99.0342 16.0919C99.3844 16.1365 99.7247 16.2358 100.042 16.3858C100.274 16.4985 100.487 16.6425 100.677 16.8134C100.847 16.9803 100.969 17.1878 101.029 17.4148C101.097 17.6376 101.146 17.8656 101.174 18.0963C101.2 18.3628 101.212 18.6304 101.209 18.8981V22.172C101.201 22.3478 101.222 22.5236 101.271 22.6932C101.342 22.8442 101.454 22.9736 101.595 23.0673V23.2009H98.627L98.4888 22.4526C97.7892 23.0852 96.8825 23.4014 95.7687 23.4013C95.0323 23.4013 94.4179 23.221 93.9255 22.8602C93.4331 22.4994 93.1869 21.976 93.1868 21.29C93.1687 20.8487 93.3022 20.414 93.5666 20.054C93.8047 19.7394 94.1374 19.5037 94.5192 19.3791C94.9254 19.2484 95.3407 19.1457 95.762 19.0718C96.1727 18.9961 96.5875 18.9426 97.0045 18.9115C97.3322 18.897 97.6547 18.8268 97.9573 18.7043C98.2103 18.5931 98.3369 18.4394 98.3369 18.2433C98.3369 17.8603 98.0239 17.6688 97.398 17.6687C96.7813 17.6687 96.4453 17.8959 96.3901 18.3502ZM98.3369 20.1007C98.0358 20.2251 97.7206 20.3147 97.398 20.3679C97.0735 20.4189 96.7592 20.5181 96.466 20.662C96.3638 20.7199 96.2804 20.8045 96.2255 20.9062C96.1706 21.0078 96.1463 21.1223 96.1554 21.2366C96.1545 21.3227 96.177 21.4075 96.2206 21.4826C96.2642 21.5576 96.3275 21.6203 96.404 21.6642C96.6037 21.7798 96.8343 21.8356 97.0667 21.8245C97.5451 21.8245 97.8765 21.682 98.0609 21.3969C98.2447 21.1119 98.3367 20.6798 98.3369 20.1007V20.1007Z" fill="#040404"/>
<path d="M102.824 23.5618H105.71C105.765 23.8824 106.032 24.0428 106.511 24.0427C106.925 24.0427 107.222 23.9403 107.401 23.7354C107.581 23.5304 107.67 23.1786 107.67 22.6798V22.1052C107.146 22.6129 106.455 22.8668 105.599 22.8669C104.633 22.8669 103.866 22.5484 103.3 21.9114C102.734 21.2746 102.451 20.4884 102.451 19.5529C102.449 19.117 102.509 18.683 102.631 18.2634C102.748 17.8621 102.93 17.4811 103.169 17.1341C103.422 16.7754 103.77 16.4893 104.177 16.3057C104.648 16.0928 105.163 15.9876 105.682 15.9984C106.111 15.9975 106.534 16.1009 106.911 16.2989C107.295 16.4969 107.625 16.7782 107.877 17.1209V16.1988H110.404V21.8379C110.404 22.2478 110.393 22.5863 110.37 22.8535C110.342 23.149 110.288 23.4417 110.211 23.7288C110.145 24.0111 110.015 24.2757 109.831 24.5038C109.639 24.7227 109.416 24.914 109.168 25.0717C108.847 25.2686 108.488 25.4004 108.112 25.4593C107.611 25.5451 107.102 25.5854 106.593 25.5796C105.406 25.5796 104.499 25.3858 103.873 24.9982C103.247 24.6107 102.898 24.1319 102.824 23.5618ZM106.455 17.9894C105.7 17.9894 105.323 18.5195 105.323 19.5796C105.311 19.9241 105.413 20.2633 105.613 20.5484C105.708 20.6775 105.834 20.7815 105.982 20.8504C106.129 20.9193 106.292 20.951 106.455 20.9426C106.869 20.9426 107.176 20.8045 107.374 20.5284C107.58 20.2233 107.684 19.8638 107.67 19.4994C107.686 19.1188 107.585 18.7423 107.38 18.417C107.187 18.132 106.879 17.9895 106.455 17.9894Z" fill="#040404"/>
<path d="M120 20.3279H114.518C114.512 20.5116 114.546 20.6945 114.617 20.8648C114.689 21.0351 114.796 21.1891 114.933 21.3168C115.065 21.4432 115.223 21.5426 115.396 21.6091C115.569 21.6756 115.754 21.708 115.941 21.7042C116.456 21.7042 116.815 21.4993 117.018 21.0896H119.765C119.667 21.4674 119.485 21.8201 119.232 22.1235C118.98 22.4268 118.662 22.6736 118.302 22.8468C117.513 23.226 116.642 23.4162 115.761 23.4013C114.555 23.4013 113.568 23.0806 112.8 22.4392C112.031 21.7979 111.646 20.907 111.646 19.7667C111.646 18.6354 112.035 17.7245 112.813 17.034C113.591 16.3436 114.569 15.9984 115.747 15.9984C117.073 15.9984 118.113 16.3881 118.868 17.1676C119.622 17.9472 120 19.0007 120 20.3279ZM114.518 18.9115H117.128C117.128 18.7524 117.094 18.5951 117.029 18.4492C116.964 18.3032 116.868 18.1718 116.748 18.0629C116.634 17.9461 116.495 17.8532 116.342 17.79C116.189 17.7268 116.024 17.6946 115.858 17.6954C115.434 17.6954 115.105 17.8045 114.871 18.0228C114.751 18.1389 114.658 18.278 114.597 18.4311C114.537 18.5841 114.51 18.7478 114.518 18.9115V18.9115Z" fill="#040404"/>
</svg>
